<svg version="1.1" xmlns="http://www.w3.org/2000/svg" width="3797.91pt" height="373pt" viewBox="0 0 3797.91 373"><style type="text/css">.dashed {stroke-dasharray: 5,5} .dotted {stroke-dasharray: 1,5} .overlay {fill: none; pointer-events: all}</style><g><g transform="translate(4, 369) scale(1,1)"><polygon stroke="#fffffe" stroke-opacity="0" fill="#ffffff" points="-4,4 -4,-369 3793.91,-369 3793.91,4"></polygon><g class="node"><title>edge</title></g><g class="subgraph"><title>cluster_fakesink0_0x7f92b3060be0</title><path stroke="#000000" fill="#aaaaff" d="M 3638.91,-141 C 3638.91,-141,3777.91,-141,3777.91,-141,3783.91,-141,3789.91,-147,3789.91,-153,3789.91,-153,3789.91,-258,3789.91,-258,3789.91,-264,3783.91,-270,3777.91,-270,3777.91,-270,3638.91,-270,3638.91,-270,3632.91,-270,3626.91,-264,3626.91,-258,3626.91,-258,3626.91,-153,3626.91,-153,3626.91,-147,3632.91,-141,3638.91,-141"></path><text x="3708.41" y="-258.8" text-anchor="middle" font-family="'Bitstream Vera Sans',serif" font-size="8" fill="#000000">GstFakeSink</text><text x="3708.41" y="-249.2" text-anchor="middle" font-family="'Bitstream Vera Sans',serif" font-size="8" fill="#000000">fakesink0</text><text x="3708.41" y="-239.6" text-anchor="middle" font-family="'Bitstream Vera Sans',serif" font-size="8" fill="#000000">[&gt;]</text><text x="3708.41" y="-230" text-anchor="middle" font-family="'Bitstream Vera Sans',serif" font-size="8" fill="#000000">parent=(GstPipeline) pipeline0</text><text x="3708.41" y="-220.4" text-anchor="middle" font-family="'Bitstream Vera Sans',serif" font-size="8" fill="#000000">sync=FALSE</text><text x="3708.41" y="-210.8" text-anchor="middle" font-family="'Bitstream Vera Sans',serif" font-size="8" fill="#000000">last-sample=((GstSample*) 0x7f92b40170b0)</text><text x="3708.41" y="-201.2" text-anchor="middle" font-family="'Bitstream Vera Sans',serif" font-size="8" fill="#000000">dump=TRUE</text></g><g class="subgraph"><title>cluster_fakesink0_0x7f92b3060be0_sink</title></g><g class="node"><title>fakesink0_0x7f92b3060be0_sink_0x7f92b28a4ce0</title><path class="solid" stroke="#000000" fill="#aaaaff" d="M 3734.91,-178.6 L 3680.91,-178.6,3680.91,-157.4,3734.91,-157.4 Z"></path><text x="3707.91" y="-170.7" text-anchor="middle" font-family="'sans',serif" font-size="9" fill="#000000">sink</text><text x="3707.91" y="-159.9" text-anchor="middle" font-family="'sans',serif" font-size="9" fill="#000000">[&gt;][bfb]</text></g><g class="subgraph"><title>cluster_vp8dec0_0x7f92b38025a0</title><path stroke="#000000" fill="#aaffaa" d="M 3296.72,-141 C 3296.72,-141,3445.72,-141,3445.72,-141,3451.72,-141,3457.72,-147,3457.72,-153,3457.72,-153,3457.72,-229,3457.72,-229,3457.72,-235,3451.72,-241,3445.72,-241,3445.72,-241,3296.72,-241,3296.72,-241,3290.72,-241,3284.72,-235,3284.72,-229,3284.72,-229,3284.72,-153,3284.72,-153,3284.72,-147,3290.72,-141,3296.72,-141"></path><text x="3371.22" y="-229.8" text-anchor="middle" font-family="'Bitstream Vera Sans',serif" font-size="8" fill="#000000">GstVP8Dec</text><text x="3371.22" y="-220.2" text-anchor="middle" font-family="'Bitstream Vera Sans',serif" font-size="8" fill="#000000">vp8dec0</text><text x="3371.22" y="-210.6" text-anchor="middle" font-family="'Bitstream Vera Sans',serif" font-size="8" fill="#000000">[&gt;]</text><text x="3371.22" y="-201" text-anchor="middle" font-family="'Bitstream Vera Sans',serif" font-size="8" fill="#000000">parent=(GstPipeline) pipeline0</text></g><g class="subgraph"><title>cluster_vp8dec0_0x7f92b38025a0_sink</title></g><g class="node"><title>vp8dec0_0x7f92b38025a0_sink_0x7f92b28a4840</title><path class="solid" stroke="#000000" fill="#aaaaff" d="M 3354.72,-178.6 L 3300.72,-178.6,3300.72,-157.4,3354.72,-157.4 Z"></path><text x="3327.72" y="-170.7" text-anchor="middle" font-family="'sans',serif" font-size="9" fill="#000000">sink</text><text x="3327.72" y="-159.9" text-anchor="middle" font-family="'sans',serif" font-size="9" fill="#000000">[&gt;][bfb]</text></g><g class="subgraph"><title>cluster_vp8dec0_0x7f92b38025a0_src</title></g><g class="node"><title>vp8dec0_0x7f92b38025a0_src_0x7f92b28a4a90</title><path class="solid" stroke="#000000" fill="#ffaaaa" d="M 3441.72,-178.6 L 3387.72,-178.6,3387.72,-157.4,3441.72,-157.4 Z"></path><text x="3414.72" y="-170.7" text-anchor="middle" font-family="'sans',serif" font-size="9" fill="#000000">src</text><text x="3414.72" y="-159.9" text-anchor="middle" font-family="'sans',serif" font-size="9" fill="#000000">[&gt;][bfb]</text></g><g class="relation" style="opacity: 1;"><title>vp8dec0_0x7f92b38025a0_sink_0x7f92b28a4840-&gt;vp8dec0_0x7f92b38025a0_src_0x7f92b28a4a90</title></g><g class="subgraph"><title>cluster_rtpvp8depay0_0x7f92b28ae150</title><path stroke="#000000" fill="#aaffaa" d="M 2910.24,-141 C 2910.24,-141,3181.24,-141,3181.24,-141,3187.24,-141,3193.24,-147,3193.24,-153,3193.24,-153,3193.24,-239,3193.24,-239,3193.24,-245,3187.24,-251,3181.24,-251,3181.24,-251,2910.24,-251,2910.24,-251,2904.24,-251,2898.24,-245,2898.24,-239,2898.24,-239,2898.24,-153,2898.24,-153,2898.24,-147,2904.24,-141,2910.24,-141"></path><text x="3045.74" y="-239.8" text-anchor="middle" font-family="'Bitstream Vera Sans',serif" font-size="8" fill="#000000">GstRtpVP8Depay</text><text x="3045.74" y="-230.2" text-anchor="middle" font-family="'Bitstream Vera Sans',serif" font-size="8" fill="#000000">rtpvp8depay0</text><text x="3045.74" y="-220.6" text-anchor="middle" font-family="'Bitstream Vera Sans',serif" font-size="8" fill="#000000">[&gt;]</text><text x="3045.74" y="-211" text-anchor="middle" font-family="'Bitstream Vera Sans',serif" font-size="8" fill="#000000">parent=(GstPipeline) pipeline0</text><text x="3045.74" y="-201.4" text-anchor="middle" font-family="'Bitstream Vera Sans',serif" font-size="8" fill="#000000">stats=application/x-rtp-depayload-stats, clock_rate=(uint)0, npt-start=(guint64)0, npt…</text></g><g class="subgraph"><title>cluster_rtpvp8depay0_0x7f92b28ae150_sink</title></g><g class="node"><title>rtpvp8depay0_0x7f92b28ae150_sink_0x7f92b28a43a0</title><path class="solid" stroke="#000000" fill="#aaaaff" d="M 3029.24,-178.6 L 2975.24,-178.6,2975.24,-157.4,3029.24,-157.4 Z"></path><text x="3002.24" y="-170.7" text-anchor="middle" font-family="'sans',serif" font-size="9" fill="#000000">sink</text><text x="3002.24" y="-159.9" text-anchor="middle" font-family="'sans',serif" font-size="9" fill="#000000">[&gt;][bfb]</text></g><g class="subgraph"><title>cluster_rtpvp8depay0_0x7f92b28ae150_src</title></g><g class="node"><title>rtpvp8depay0_0x7f92b28ae150_src_0x7f92b28a45f0</title><path class="solid" stroke="#000000" fill="#ffaaaa" d="M 3116.24,-178.6 L 3062.24,-178.6,3062.24,-157.4,3116.24,-157.4 Z"></path><text x="3089.24" y="-170.7" text-anchor="middle" font-family="'sans',serif" font-size="9" fill="#000000">src</text><text x="3089.24" y="-159.9" text-anchor="middle" font-family="'sans',serif" font-size="9" fill="#000000">[&gt;][bfb]</text></g><g class="relation" style="opacity: 1;"><title>rtpvp8depay0_0x7f92b28ae150_sink_0x7f92b28a43a0-&gt;rtpvp8depay0_0x7f92b28ae150_src_0x7f92b28a45f0</title></g><g class="subgraph"><title>cluster_rtpbin0_0x7f92b28aa050</title><path stroke="#000000" fill="#ffffff" d="M 424.44,-8 C 424.44,-8,2778.26,-8,2778.26,-8,2784.26,-8,2790.26,-14,2790.26,-20,2790.26,-20,2790.26,-243,2790.26,-243,2790.26,-249,2784.26,-255,2778.26,-255,2778.26,-255,424.44,-255,424.44,-255,418.44,-255,412.44,-249,412.44,-243,412.44,-243,412.44,-20,412.44,-20,412.44,-14,418.44,-8,424.44,-8"></path><text x="1601.35" y="-243.8" text-anchor="middle" font-family="'Bitstream Vera Sans',serif" font-size="8" fill="#000000">GstRtpBin</text><text x="1601.35" y="-234.2" text-anchor="middle" font-family="'Bitstream Vera Sans',serif" font-size="8" fill="#000000">rtpbin0</text><text x="1601.35" y="-224.6" text-anchor="middle" font-family="'Bitstream Vera Sans',serif" font-size="8" fill="#000000">[&gt;]</text><text x="1601.35" y="-215" text-anchor="middle" font-family="'Bitstream Vera Sans',serif" font-size="8" fill="#000000">parent=(GstPipeline) pipeline0</text><text x="1601.35" y="-205.4" text-anchor="middle" font-family="'Bitstream Vera Sans',serif" font-size="8" fill="#000000">sdes=application/x-rtp-source-sdes, cname=(string)\"user2297134184\\@host-13b1d90…</text></g><g class="subgraph"><title>cluster_rtpbin0_0x7f92b28aa050_sink</title></g><g class="node"><title>_proxypad0_0x7f92b28ae390</title><path class="dashed" stroke="#000000" fill="#ddddff" d="M 499.44,-153.6 L 445.44,-153.6,445.44,-132.4,499.44,-132.4 Z"></path><text x="472.44" y="-145.7" text-anchor="middle" font-family="'sans',serif" font-size="9" fill="#000000">proxypad0</text><text x="472.44" y="-134.9" text-anchor="middle" font-family="'sans',serif" font-size="9" fill="#000000">[&gt;][bfb]</text></g><g class="node"><title>rtpbin0_0x7f92b28aa050_recv_rtp_sink_0_0x7f92b306c0c0</title><path class="dashed" stroke="#000000" fill="#ddddff" d="M 501.93,-182.6 L 442.96,-182.6,442.96,-161.4,501.93,-161.4 Z"></path><text x="472.44" y="-174.7" text-anchor="middle" font-family="'sans',serif" font-size="9" fill="#000000">recv_rtp_sink_0</text><text x="472.44" y="-163.9" text-anchor="middle" font-family="'sans',serif" font-size="9" fill="#000000">[&gt;][bfb]</text></g><g class="relation" style="opacity: 1;"><title>rtpbin0_0x7f92b28aa050_recv_rtp_sink_0_0x7f92b306c0c0-&gt;_proxypad0_0x7f92b28ae390</title><path class="dashed" stroke="#000000" fill="none" d="M 472.44,-161.24 C 472.44,-161.08,472.44,-160.93,472.44,-160.78"></path><path class="solid" stroke="#000000" fill="#000000" d="M 475.94,-163.87 L 472.44,-153.88,468.94,-163.88 Z"></path></g><g class="subgraph"><title>cluster_rtpbin0_0x7f92b28aa050_src</title></g><g class="node"><title>_proxypad1_0x7f92b28aeab0</title><path class="dotted" stroke="#000000" fill="#ffdddd" d="M 2745.03,-149.6 L 2691.03,-149.6,2691.03,-128.4,2745.03,-128.4 Z"></path><text x="2718.03" y="-141.7" text-anchor="middle" font-family="'sans',serif" font-size="9" fill="#000000">proxypad1</text><text x="2718.03" y="-130.9" text-anchor="middle" font-family="'sans',serif" font-size="9" fill="#000000">[&gt;][bfb]</text></g><g class="node"><title>rtpbin0_0x7f92b28aa050_recv_rtp_src_0_23854650_101_0x7f92b306cac0</title><path class="dotted" stroke="#000000" fill="#ffdddd" d="M 2774.5,-178.6 L 2661.55,-178.6,2661.55,-157.4,2774.5,-157.4 Z"></path><text x="2718.03" y="-170.7" text-anchor="middle" font-family="'sans',serif" font-size="9" fill="#000000">recv_rtp_src_0_23854650_101</text><text x="2718.03" y="-159.9" text-anchor="middle" font-family="'sans',serif" font-size="9" fill="#000000">[&gt;][bfb]</text></g><g class="relation" style="opacity: 1;"><title>_proxypad1_0x7f92b28aeab0-&gt;rtpbin0_0x7f92b28aa050_recv_rtp_src_0_23854650_101_0x7f92b306cac0</title><path class="dashed" stroke="#000000" fill="none" d="M 2718.03,-149.88 C 2718.03,-150.03,2718.03,-150.18,2718.03,-150.34"></path><path class="solid" stroke="#000000" fill="#000000" d="M 2714.53,-147.24 L 2718.03,-157.24,2721.53,-147.24 Z"></path></g><g class="subgraph"><title>cluster_rtpjitterbuffer0_0x7f92b3802d00</title><path stroke="#000000" fill="#aaffaa" d="M 1966.83,-42 C 1966.83,-42,2244.83,-42,2244.83,-42,2250.83,-42,2256.83,-48,2256.83,-54,2256.83,-54,2256.83,-169,2256.83,-169,2256.83,-175,2250.83,-181,2244.83,-181,2244.83,-181,1966.83,-181,1966.83,-181,1960.83,-181,1954.83,-175,1954.83,-169,1954.83,-169,1954.83,-54,1954.83,-54,1954.83,-48,1960.83,-42,1966.83,-42"></path><text x="2105.83" y="-169.8" text-anchor="middle" font-family="'Bitstream Vera Sans',serif" font-size="8" fill="#000000">GstRtpJitterBuffer</text><text x="2105.83" y="-160.2" text-anchor="middle" font-family="'Bitstream Vera Sans',serif" font-size="8" fill="#000000">rtpjitterbuffer0</text><text x="2105.83" y="-150.6" text-anchor="middle" font-family="'Bitstream Vera Sans',serif" font-size="8" fill="#000000">[&gt;]</text><text x="2105.83" y="-141" text-anchor="middle" font-family="'Bitstream Vera Sans',serif" font-size="8" fill="#000000">parent=(GstRtpBin) rtpbin0</text><text x="2105.83" y="-131.4" text-anchor="middle" font-family="'Bitstream Vera Sans',serif" font-size="8" fill="#000000">stats=application/x-rtp-jitterbuffer-stats, num-pushed=(guint64)2, num-lost=(guint64)0…</text></g><g class="subgraph"><title>cluster_rtpjitterbuffer0_0x7f92b3802d00_sink</title></g><g class="node"><title>rtpjitterbuffer0_0x7f92b3802d00_sink_0x7f92b4022eb0</title><path class="solid" stroke="#000000" fill="#aaaaff" d="M 2088.83,-79.6 L 2034.83,-79.6,2034.83,-58.4,2088.83,-58.4 Z"></path><text x="2061.83" y="-71.7" text-anchor="middle" font-family="'sans',serif" font-size="9" fill="#000000">sink</text><text x="2061.83" y="-60.9" text-anchor="middle" font-family="'sans',serif" font-size="9" fill="#000000">[&gt;][bfb]</text></g><g class="node"><title>rtpjitterbuffer0_0x7f92b3802d00_sink_rtcp_0x7f92b4023350</title><path class="dashed" stroke="#000000" fill="#aaaaff" d="M 2088.83,-108.6 L 2034.83,-108.6,2034.83,-87.4,2088.83,-87.4 Z"></path><text x="2061.83" y="-100.7" text-anchor="middle" font-family="'sans',serif" font-size="9" fill="#000000">sink_rtcp</text><text x="2061.83" y="-89.9" text-anchor="middle" font-family="'sans',serif" font-size="9" fill="#000000">[&gt;][bfb]</text></g><g class="subgraph"><title>cluster_rtpjitterbuffer0_0x7f92b3802d00_src</title></g><g class="node"><title>rtpjitterbuffer0_0x7f92b3802d00_src_0x7f92b4022c60</title><path class="solid" stroke="#000000" fill="#ffaaaa" d="M 2175.83,-86.6 L 2121.83,-86.6,2121.83,-65.4,2175.83,-65.4 Z"></path><text x="2148.83" y="-78.7" text-anchor="middle" font-family="'sans',serif" font-size="9" fill="#000000">src</text><text x="2148.83" y="-67.9" text-anchor="middle" font-family="'sans',serif" font-size="9" fill="#000000">[&gt;][bfb][T]</text></g><g class="relation" style="opacity: 1;"><title>rtpjitterbuffer0_0x7f92b3802d00_sink_0x7f92b4022eb0-&gt;rtpjitterbuffer0_0x7f92b3802d00_src_0x7f92b4022c60</title></g><g class="subgraph"><title>cluster_rtpptdemux0_0x7f92b3847050</title><path stroke="#000000" fill="#aaffaa" d="M 2384.81,-71 C 2384.81,-71,2533.81,-71,2533.81,-71,2539.81,-71,2545.81,-77,2545.81,-83,2545.81,-83,2545.81,-159,2545.81,-159,2545.81,-165,2539.81,-171,2533.81,-171,2533.81,-171,2384.81,-171,2384.81,-171,2378.81,-171,2372.81,-165,2372.81,-159,2372.81,-159,2372.81,-83,2372.81,-83,2372.81,-77,2378.81,-71,2384.81,-71"></path><text x="2459.31" y="-159.8" text-anchor="middle" font-family="'Bitstream Vera Sans',serif" font-size="8" fill="#000000">GstRtpPtDemux</text><text x="2459.31" y="-150.2" text-anchor="middle" font-family="'Bitstream Vera Sans',serif" font-size="8" fill="#000000">rtpptdemux0</text><text x="2459.31" y="-140.6" text-anchor="middle" font-family="'Bitstream Vera Sans',serif" font-size="8" fill="#000000">[&gt;]</text><text x="2459.31" y="-131" text-anchor="middle" font-family="'Bitstream Vera Sans',serif" font-size="8" fill="#000000">parent=(GstRtpBin) rtpbin0</text></g><g class="subgraph"><title>cluster_rtpptdemux0_0x7f92b3847050_sink</title></g><g class="node"><title>rtpptdemux0_0x7f92b3847050_sink_0x7f92b4023100</title><path class="solid" stroke="#000000" fill="#aaaaff" d="M 2442.81,-108.6 L 2388.81,-108.6,2388.81,-87.4,2442.81,-87.4 Z"></path><text x="2415.81" y="-100.7" text-anchor="middle" font-family="'sans',serif" font-size="9" fill="#000000">sink</text><text x="2415.81" y="-89.9" text-anchor="middle" font-family="'sans',serif" font-size="9" fill="#000000">[&gt;][bfb]</text></g><g class="subgraph"><title>cluster_rtpptdemux0_0x7f92b3847050_src</title></g><g class="node"><title>rtpptdemux0_0x7f92b3847050_src_101_0x7f92b4023a40</title><path class="dotted" stroke="#000000" fill="#ffaaaa" d="M 2529.81,-108.6 L 2475.81,-108.6,2475.81,-87.4,2529.81,-87.4 Z"></path><text x="2502.81" y="-100.7" text-anchor="middle" font-family="'sans',serif" font-size="9" fill="#000000">src_101</text><text x="2502.81" y="-89.9" text-anchor="middle" font-family="'sans',serif" font-size="9" fill="#000000">[&gt;][bfb]</text></g><g class="relation" style="opacity: 1;"><title>rtpptdemux0_0x7f92b3847050_sink_0x7f92b4023100-&gt;rtpptdemux0_0x7f92b3847050_src_101_0x7f92b4023a40</title></g><g class="subgraph"><title>cluster_rtpstorage0_0x7f92b28ac360</title><path stroke="#000000" fill="#aaffaa" d="M 1369.38,-41 C 1369.38,-41,1522.38,-41,1522.38,-41,1528.38,-41,1534.38,-47,1534.38,-53,1534.38,-53,1534.38,-139,1534.38,-139,1534.38,-145,1528.38,-151,1522.38,-151,1522.38,-151,1369.38,-151,1369.38,-151,1363.38,-151,1357.38,-145,1357.38,-139,1357.38,-139,1357.38,-53,1357.38,-53,1357.38,-47,1363.38,-41,1369.38,-41"></path><text x="1445.88" y="-139.8" text-anchor="middle" font-family="'Bitstream Vera Sans',serif" font-size="8" fill="#000000">GstRtpStorage</text><text x="1445.88" y="-130.2" text-anchor="middle" font-family="'Bitstream Vera Sans',serif" font-size="8" fill="#000000">rtpstorage0</text><text x="1445.88" y="-120.6" text-anchor="middle" font-family="'Bitstream Vera Sans',serif" font-size="8" fill="#000000">[&gt;]</text><text x="1445.88" y="-111" text-anchor="middle" font-family="'Bitstream Vera Sans',serif" font-size="8" fill="#000000">parent=(GstRtpBin) rtpbin0</text><text x="1445.88" y="-101.4" text-anchor="middle" font-family="'Bitstream Vera Sans',serif" font-size="8" fill="#000000">internal-storage=((RtpStorage*) 0x7f92b2446ac0)</text></g><g class="subgraph"><title>cluster_rtpstorage0_0x7f92b28ac360_sink</title></g><g class="node"><title>rtpstorage0_0x7f92b28ac360_sink_0x7f92b28a5620</title><path class="solid" stroke="#000000" fill="#aaaaff" d="M 1429.38,-78.6 L 1375.38,-78.6,1375.38,-57.4,1429.38,-57.4 Z"></path><text x="1402.38" y="-70.7" text-anchor="middle" font-family="'sans',serif" font-size="9" fill="#000000">sink</text><text x="1402.38" y="-59.9" text-anchor="middle" font-family="'sans',serif" font-size="9" fill="#000000">[&gt;][bfb]</text></g><g class="subgraph"><title>cluster_rtpstorage0_0x7f92b28ac360_src</title></g><g class="node"><title>rtpstorage0_0x7f92b28ac360_src_0x7f92b28a53d0</title><path class="solid" stroke="#000000" fill="#ffaaaa" d="M 1516.38,-78.6 L 1462.38,-78.6,1462.38,-57.4,1516.38,-57.4 Z"></path><text x="1489.38" y="-70.7" text-anchor="middle" font-family="'sans',serif" font-size="9" fill="#000000">src</text><text x="1489.38" y="-59.9" text-anchor="middle" font-family="'sans',serif" font-size="9" fill="#000000">[&gt;][bfb]</text></g><g class="relation" style="opacity: 1;"><title>rtpstorage0_0x7f92b28ac360_sink_0x7f92b28a5620-&gt;rtpstorage0_0x7f92b28ac360_src_0x7f92b28a53d0</title></g><g class="subgraph"><title>cluster_funnel1_0x7f92b28ac5a0</title><path stroke="#000000" fill="#ffaaaa" d="M 432.44,-16 C 432.44,-16,513.44,-16,513.44,-16,519.44,-16,525.44,-22,525.44,-28,525.44,-28,525.44,-104,525.44,-104,525.44,-110,519.44,-116,513.44,-116,513.44,-116,432.44,-116,432.44,-116,426.44,-116,420.44,-110,420.44,-104,420.44,-104,420.44,-28,420.44,-28,420.44,-22,426.44,-16,432.44,-16"></path><text x="472.94" y="-104.8" text-anchor="middle" font-family="'Bitstream Vera Sans',serif" font-size="8" fill="#000000">GstFunnel</text><text x="472.94" y="-95.2" text-anchor="middle" font-family="'Bitstream Vera Sans',serif" font-size="8" fill="#000000">funnel1</text><text x="472.94" y="-85.6" text-anchor="middle" font-family="'Bitstream Vera Sans',serif" font-size="8" fill="#000000">[&gt;]</text><text x="472.94" y="-76" text-anchor="middle" font-family="'Bitstream Vera Sans',serif" font-size="8" fill="#000000">parent=(GstRtpBin) rtpbin0</text></g><g class="subgraph"><title>cluster_funnel1_0x7f92b28ac5a0_src</title></g><g class="node"><title>funnel1_0x7f92b28ac5a0_src_0x7f92b28a5ac0</title><path class="solid" stroke="#000000" fill="#ffaaaa" d="M 499.44,-53.6 L 445.44,-53.6,445.44,-32.4,499.44,-32.4 Z"></path><text x="472.44" y="-45.7" text-anchor="middle" font-family="'sans',serif" font-size="9" fill="#000000">src</text><text x="472.44" y="-34.9" text-anchor="middle" font-family="'sans',serif" font-size="9" fill="#000000">[&gt;][bfb]</text></g><g class="subgraph"><title>cluster_funnel0_0x7f92b28ac480</title><path stroke="#000000" fill="#aaffaa" d="M 653.42,-69 C 653.42,-69,802.42,-69,802.42,-69,808.42,-69,814.42,-75,814.42,-81,814.42,-81,814.42,-157,814.42,-157,814.42,-163,808.42,-169,802.42,-169,802.42,-169,653.42,-169,653.42,-169,647.42,-169,641.42,-163,641.42,-157,641.42,-157,641.42,-81,641.42,-81,641.42,-75,647.42,-69,653.42,-69"></path><text x="727.92" y="-157.8" text-anchor="middle" font-family="'Bitstream Vera Sans',serif" font-size="8" fill="#000000">GstFunnel</text><text x="727.92" y="-148.2" text-anchor="middle" font-family="'Bitstream Vera Sans',serif" font-size="8" fill="#000000">funnel0</text><text x="727.92" y="-138.6" text-anchor="middle" font-family="'Bitstream Vera Sans',serif" font-size="8" fill="#000000">[&gt;]</text><text x="727.92" y="-129" text-anchor="middle" font-family="'Bitstream Vera Sans',serif" font-size="8" fill="#000000">parent=(GstRtpBin) rtpbin0</text></g><g class="subgraph"><title>cluster_funnel0_0x7f92b28ac480_sink</title></g><g class="node"><title>funnel0_0x7f92b28ac480_funnelpad0_0x7f92b4022320</title><path class="dashed" stroke="#000000" fill="#aaaaff" d="M 711.42,-106.6 L 657.42,-106.6,657.42,-85.4,711.42,-85.4 Z"></path><text x="684.42" y="-98.7" text-anchor="middle" font-family="'sans',serif" font-size="9" fill="#000000">funnelpad0</text><text x="684.42" y="-87.9" text-anchor="middle" font-family="'sans',serif" font-size="9" fill="#000000">[&gt;][bfb]</text></g><g class="subgraph"><title>cluster_funnel0_0x7f92b28ac480_src</title></g><g class="node"><title>funnel0_0x7f92b28ac480_src_0x7f92b28a5870</title><path class="solid" stroke="#000000" fill="#ffaaaa" d="M 798.42,-106.6 L 744.42,-106.6,744.42,-85.4,798.42,-85.4 Z"></path><text x="771.42" y="-98.7" text-anchor="middle" font-family="'sans',serif" font-size="9" fill="#000000">src</text><text x="771.42" y="-87.9" text-anchor="middle" font-family="'sans',serif" font-size="9" fill="#000000">[&gt;][bfb]</text></g><g class="relation" style="opacity: 1;"><title>funnel0_0x7f92b28ac480_funnelpad0_0x7f92b4022320-&gt;funnel0_0x7f92b28ac480_src_0x7f92b28a5870</title></g><g class="subgraph"><title>cluster_rtpssrcdemux0_0x7f92b3058180</title><path stroke="#000000" fill="#aaffaa" d="M 1662.36,-16 C 1662.36,-16,1826.85,-16,1826.85,-16,1832.85,-16,1838.85,-22,1838.85,-28,1838.85,-28,1838.85,-133,1838.85,-133,1838.85,-139,1832.85,-145,1826.85,-145,1826.85,-145,1662.36,-145,1662.36,-145,1656.36,-145,1650.36,-139,1650.36,-133,1650.36,-133,1650.36,-28,1650.36,-28,1650.36,-22,1656.36,-16,1662.36,-16"></path><text x="1744.61" y="-133.8" text-anchor="middle" font-family="'Bitstream Vera Sans',serif" font-size="8" fill="#000000">GstRtpSsrcDemux</text><text x="1744.61" y="-124.2" text-anchor="middle" font-family="'Bitstream Vera Sans',serif" font-size="8" fill="#000000">rtpssrcdemux0</text><text x="1744.61" y="-114.6" text-anchor="middle" font-family="'Bitstream Vera Sans',serif" font-size="8" fill="#000000">[&gt;]</text><text x="1744.61" y="-105" text-anchor="middle" font-family="'Bitstream Vera Sans',serif" font-size="8" fill="#000000">parent=(GstRtpBin) rtpbin0</text></g><g class="subgraph"><title>cluster_rtpssrcdemux0_0x7f92b3058180_sink</title></g><g class="node"><title>rtpssrcdemux0_0x7f92b3058180_sink_0x7f92b28a4f30</title><path class="solid" stroke="#000000" fill="#aaaaff" d="M 1720.36,-82.6 L 1666.36,-82.6,1666.36,-61.4,1720.36,-61.4 Z"></path><text x="1693.36" y="-74.7" text-anchor="middle" font-family="'sans',serif" font-size="9" fill="#000000">sink</text><text x="1693.36" y="-63.9" text-anchor="middle" font-family="'sans',serif" font-size="9" fill="#000000">[&gt;][bfb]</text></g><g class="node"><title>rtpssrcdemux0_0x7f92b3058180_rtcp_sink_0x7f92b28a5180</title><path class="solid" stroke="#000000" fill="#aaaaff" d="M 1720.36,-53.6 L 1666.36,-53.6,1666.36,-32.4,1720.36,-32.4 Z"></path><text x="1693.36" y="-45.7" text-anchor="middle" font-family="'sans',serif" font-size="9" fill="#000000">rtcp_sink</text><text x="1693.36" y="-34.9" text-anchor="middle" font-family="'sans',serif" font-size="9" fill="#000000">[&gt;][bfb]</text></g><g class="subgraph"><title>cluster_rtpssrcdemux0_0x7f92b3058180_src</title></g><g class="node"><title>rtpssrcdemux0_0x7f92b3058180_src_23854650_0x7f92b40227c0</title><path class="dotted" stroke="#000000" fill="#ffaaaa" d="M 1815.11,-53.6 L 1761.11,-53.6,1761.11,-32.4,1815.11,-32.4 Z"></path><text x="1788.11" y="-45.7" text-anchor="middle" font-family="'sans',serif" font-size="9" fill="#000000">src_23854650</text><text x="1788.11" y="-34.9" text-anchor="middle" font-family="'sans',serif" font-size="9" fill="#000000">[&gt;][bfb]</text></g><g class="node"><title>rtpssrcdemux0_0x7f92b3058180_rtcp_src_23854650_0x7f92b4022a10</title><path class="dotted" stroke="#000000" fill="#ffaaaa" d="M 1823.09,-82.6 L 1753.12,-82.6,1753.12,-61.4,1823.09,-61.4 Z"></path><text x="1788.11" y="-74.7" text-anchor="middle" font-family="'sans',serif" font-size="9" fill="#000000">rtcp_src_23854650</text><text x="1788.11" y="-63.9" text-anchor="middle" font-family="'sans',serif" font-size="9" fill="#000000">[&gt;][bfb]</text></g><g class="relation" style="opacity: 1;"><title>rtpssrcdemux0_0x7f92b3058180_sink_0x7f92b28a4f30-&gt;rtpssrcdemux0_0x7f92b3058180_src_23854650_0x7f92b40227c0</title></g><g class="subgraph"><title>cluster_rtpsession0_0x7f92b30680e0</title><path stroke="#000000" fill="#aaffaa" d="M 942.4,-33 C 942.4,-33,1221.4,-33,1221.4,-33,1227.4,-33,1233.4,-39,1233.4,-45,1233.4,-45,1233.4,-169,1233.4,-169,1233.4,-175,1227.4,-181,1221.4,-181,1221.4,-181,942.4,-181,942.4,-181,936.4,-181,930.4,-175,930.4,-169,930.4,-169,930.4,-45,930.4,-45,930.4,-39,936.4,-33,942.4,-33"></path><text x="1081.9" y="-169.8" text-anchor="middle" font-family="'Bitstream Vera Sans',serif" font-size="8" fill="#000000">GstRtpSession</text><text x="1081.9" y="-160.2" text-anchor="middle" font-family="'Bitstream Vera Sans',serif" font-size="8" fill="#000000">rtpsession0</text><text x="1081.9" y="-150.6" text-anchor="middle" font-family="'Bitstream Vera Sans',serif" font-size="8" fill="#000000">[&gt;]</text><text x="1081.9" y="-141" text-anchor="middle" font-family="'Bitstream Vera Sans',serif" font-size="8" fill="#000000">parent=(GstRtpBin) rtpbin0</text><text x="1081.9" y="-131.4" text-anchor="middle" font-family="'Bitstream Vera Sans',serif" font-size="8" fill="#000000">sdes=application/x-rtp-source-sdes, cname=(string)\"user2297134184\\@host-13b1d90…</text><text x="1081.9" y="-121.8" text-anchor="middle" font-family="'Bitstream Vera Sans',serif" font-size="8" fill="#000000">num-sources=1</text><text x="1081.9" y="-112.2" text-anchor="middle" font-family="'Bitstream Vera Sans',serif" font-size="8" fill="#000000">num-active-sources=1</text><text x="1081.9" y="-102.6" text-anchor="middle" font-family="'Bitstream Vera Sans',serif" font-size="8" fill="#000000">internal-session=((RTPSession*) 0x7f92b28b22e0)</text><text x="1081.9" y="-93" text-anchor="middle" font-family="'Bitstream Vera Sans',serif" font-size="8" fill="#000000">stats=application/x-rtp-session-stats, rtx-drop-count=(uint)0, sent-nack-count=(uint)0…</text></g><g class="subgraph"><title>cluster_rtpsession0_0x7f92b30680e0_sink</title></g><g class="node"><title>rtpsession0_0x7f92b30680e0_recv_rtp_sink_0x7f92b28a5d10</title><path class="dashed" stroke="#000000" fill="#aaaaff" d="M 1065.4,-70.6 L 1011.4,-70.6,1011.4,-49.4,1065.4,-49.4 Z"></path><text x="1038.4" y="-62.7" text-anchor="middle" font-family="'sans',serif" font-size="9" fill="#000000">recv_rtp_sink</text><text x="1038.4" y="-51.9" text-anchor="middle" font-family="'sans',serif" font-size="9" fill="#000000">[&gt;][bfb]</text></g><g class="subgraph"><title>cluster_rtpsession0_0x7f92b30680e0_src</title></g><g class="node"><title>rtpsession0_0x7f92b30680e0_recv_rtp_src_0x7f92b40220d0</title><path class="dotted" stroke="#000000" fill="#ffaaaa" d="M 1152.4,-70.6 L 1098.4,-70.6,1098.4,-49.4,1152.4,-49.4 Z"></path><text x="1125.4" y="-62.7" text-anchor="middle" font-family="'sans',serif" font-size="9" fill="#000000">recv_rtp_src</text><text x="1125.4" y="-51.9" text-anchor="middle" font-family="'sans',serif" font-size="9" fill="#000000">[&gt;][bfb]</text></g><g class="relation" style="opacity: 1;"><title>rtpsession0_0x7f92b30680e0_recv_rtp_sink_0x7f92b28a5d10-&gt;rtpsession0_0x7f92b30680e0_recv_rtp_src_0x7f92b40220d0</title></g><g class="relation" style="opacity: 1;"><title>_proxypad0_0x7f92b28ae390-&gt;funnel0_0x7f92b28ac480_funnelpad0_0x7f92b4022320</title><path stroke="#000000" fill="none" d="M 499.61,-137.14 C 536.89,-128.8,605.4,-113.46,647.43,-104.06"></path><path class="solid" stroke="#000000" fill="#000000" d="M 648.26,-107.46 L 657.26,-101.86,646.73,-100.63 Z"></path><text x="541.44" y="-172.9" text-anchor="start" font-family="'monospace',serif" font-size="9" fill="#000000">application/x-rtp</text><text x="541.44" y="-162.1" text-anchor="start" font-family="'monospace',serif" font-size="9" fill="#000000">               media: video</text><text x="541.44" y="-151.3" text-anchor="start" font-family="'monospace',serif" font-size="9" fill="#000000">          clock-rate: 90000</text><text x="541.44" y="-140.5" text-anchor="start" font-family="'monospace',serif" font-size="9" fill="#000000">       encoding-name: VP8</text><text x="541.44" y="-129.7" text-anchor="start" font-family="'monospace',serif" font-size="9" fill="#000000">             payload: 101</text></g><g class="relation" style="opacity: 1;"><title>rtpbin0_0x7f92b28aa050_recv_rtp_sink_0_0x7f92b306c0c0-&gt;rtpbin0_0x7f92b28aa050_recv_rtp_src_0_23854650_101_0x7f92b306cac0</title></g><g class="relation" style="opacity: 1;"><title>rtpjitterbuffer0_0x7f92b3802d00_src_0x7f92b4022c60-&gt;rtpptdemux0_0x7f92b3847050_sink_0x7f92b4023100</title><path stroke="#000000" fill="none" d="M 2176.2,-78.19 C 2223.82,-82.14,2324.21,-90.48,2378.36,-94.97"></path><path class="solid" stroke="#000000" fill="#000000" d="M 2378.28,-98.48 L 2388.54,-95.82,2378.86,-91.5 Z"></path><text x="2272.83" y="-150.7" text-anchor="start" font-family="'monospace',serif" font-size="9" fill="#000000">application/x-rtp</text><text x="2272.83" y="-139.9" text-anchor="start" font-family="'monospace',serif" font-size="9" fill="#000000">               media: video</text><text x="2272.83" y="-129.1" text-anchor="start" font-family="'monospace',serif" font-size="9" fill="#000000">          clock-rate: 90000</text><text x="2272.83" y="-118.3" text-anchor="start" font-family="'monospace',serif" font-size="9" fill="#000000">       encoding-name: VP8</text><text x="2272.83" y="-107.5" text-anchor="start" font-family="'monospace',serif" font-size="9" fill="#000000">             payload: 101</text><text x="2272.83" y="-96.7" text-anchor="start" font-family="'monospace',serif" font-size="9" fill="#000000">                ssrc: 23854650</text></g><g class="relation" style="opacity: 1;"><title>rtpptdemux0_0x7f92b3847050_src_101_0x7f92b4023a40-&gt;_proxypad1_0x7f92b28aeab0</title><path stroke="#000000" fill="none" d="M 2530.04,-102.31 C 2558.58,-107.08,2605.53,-115.17,2645.79,-123.2,2657.2,-125.48,2669.6,-128.16,2680.8,-130.65"></path><path class="solid" stroke="#000000" fill="#000000" d="M 2680.17,-134.1 L 2690.69,-132.88,2681.71,-127.27 Z"></path><text x="2553.81" y="-180.7" text-anchor="start" font-family="'monospace',serif" font-size="9" fill="#000000">application/x-rtp</text><text x="2553.81" y="-169.9" text-anchor="start" font-family="'monospace',serif" font-size="9" fill="#000000">               media: video</text><text x="2553.81" y="-159.1" text-anchor="start" font-family="'monospace',serif" font-size="9" fill="#000000">          clock-rate: 90000</text><text x="2553.81" y="-148.3" text-anchor="start" font-family="'monospace',serif" font-size="9" fill="#000000">       encoding-name: VP8</text><text x="2553.81" y="-137.5" text-anchor="start" font-family="'monospace',serif" font-size="9" fill="#000000">             payload: 101</text><text x="2553.81" y="-126.7" text-anchor="start" font-family="'monospace',serif" font-size="9" fill="#000000">                ssrc: 23854650</text></g><g class="relation" style="opacity: 1;"><title>rtpstorage0_0x7f92b28ac360_src_0x7f92b28a53d0-&gt;rtpssrcdemux0_0x7f92b3058180_sink_0x7f92b28a4f30</title><path stroke="#000000" fill="none" d="M 1516.79,-68.52 C 1552.42,-69.23,1616.04,-70.49,1656.13,-71.28"></path><path class="solid" stroke="#000000" fill="#000000" d="M 1656.21,-74.78 L 1666.27,-71.48,1656.34,-67.79 Z"></path><text x="1550.38" y="-116.9" text-anchor="start" font-family="'monospace',serif" font-size="9" fill="#000000">application/x-rtp</text><text x="1550.38" y="-106.1" text-anchor="start" font-family="'monospace',serif" font-size="9" fill="#000000">               media: video</text><text x="1550.38" y="-95.3" text-anchor="start" font-family="'monospace',serif" font-size="9" fill="#000000">          clock-rate: 90000</text><text x="1550.38" y="-84.5" text-anchor="start" font-family="'monospace',serif" font-size="9" fill="#000000">       encoding-name: VP8</text><text x="1550.38" y="-73.7" text-anchor="start" font-family="'monospace',serif" font-size="9" fill="#000000">             payload: 101</text></g><g class="relation" style="opacity: 1;"><title>funnel0_0x7f92b28ac480_src_0x7f92b28a5870-&gt;rtpsession0_0x7f92b30680e0_recv_rtp_sink_0x7f92b28a5d10</title><path stroke="#000000" fill="none" d="M 798.8,-92.42 C 846.42,-85.95,946.81,-72.31,1000.95,-64.95"></path><path class="solid" stroke="#000000" fill="#000000" d="M 1001.7,-68.38 L 1011.14,-63.57,1000.76,-61.45 Z"></path><text x="822.42" y="-135.9" text-anchor="start" font-family="'monospace',serif" font-size="9" fill="#000000">application/x-rtp</text><text x="822.42" y="-125.1" text-anchor="start" font-family="'monospace',serif" font-size="9" fill="#000000">               media: video</text><text x="822.42" y="-114.3" text-anchor="start" font-family="'monospace',serif" font-size="9" fill="#000000">          clock-rate: 90000</text><text x="822.42" y="-103.5" text-anchor="start" font-family="'monospace',serif" font-size="9" fill="#000000">       encoding-name: VP8</text><text x="822.42" y="-92.7" text-anchor="start" font-family="'monospace',serif" font-size="9" fill="#000000">             payload: 101</text></g><g class="relation" style="opacity: 1;"><title>rtpssrcdemux0_0x7f92b3058180_src_23854650_0x7f92b40227c0-&gt;rtpjitterbuffer0_0x7f92b3802d00_sink_0x7f92b4022eb0</title><path stroke="#000000" fill="none" d="M 1815.22,-39.82 C 1825.11,-38.76,1836.48,-37.72,1846.85,-37.2,1887.68,-35.15,1898.28,-32,1938.83,-37.2,1968.27,-40.97,2000.76,-49.67,2024.8,-57.02"></path><path class="solid" stroke="#000000" fill="#000000" d="M 2023.97,-60.43 L 2034.56,-60.07,2026.06,-53.75 Z"></path><text x="1846.85" y="-94.7" text-anchor="start" font-family="'monospace',serif" font-size="9" fill="#000000">application/x-rtp</text><text x="1846.85" y="-83.9" text-anchor="start" font-family="'monospace',serif" font-size="9" fill="#000000">               media: video</text><text x="1846.85" y="-73.1" text-anchor="start" font-family="'monospace',serif" font-size="9" fill="#000000">          clock-rate: 90000</text><text x="1846.85" y="-62.3" text-anchor="start" font-family="'monospace',serif" font-size="9" fill="#000000">       encoding-name: VP8</text><text x="1846.85" y="-51.5" text-anchor="start" font-family="'monospace',serif" font-size="9" fill="#000000">             payload: 101</text><text x="1846.85" y="-40.7" text-anchor="start" font-family="'monospace',serif" font-size="9" fill="#000000">                ssrc: 23854650</text></g><g class="relation" style="opacity: 1;"><title>rtpssrcdemux0_0x7f92b3058180_rtcp_src_23854650_0x7f92b4022a10-&gt;rtpjitterbuffer0_0x7f92b3802d00_sink_rtcp_0x7f92b4023350</title><path stroke="#000000" fill="none" d="M 1806.59,-82.64 C 1817.68,-88.75,1832.59,-95.83,1846.85,-99,1908.16,-112.63,1981.81,-107.82,2024.77,-102.98"></path><path class="solid" stroke="#000000" fill="#000000" d="M 2025.23,-106.45 L 2034.74,-101.8,2024.4,-99.5 Z"></path><text x="1860.85" y="-110.7" text-anchor="start" font-family="'monospace',serif" font-size="9" fill="#000000">application/x-rtcp</text></g><g class="relation" style="opacity: 1;"><title>rtpsession0_0x7f92b30680e0_recv_rtp_src_0x7f92b40220d0-&gt;rtpstorage0_0x7f92b28ac360_sink_0x7f92b28a5620</title><path stroke="#000000" fill="none" d="M 1152.77,-60.77 C 1202.15,-62.2,1308.64,-65.3,1364.88,-66.94"></path><path class="solid" stroke="#000000" fill="#000000" d="M 1365,-70.44 L 1375.1,-67.24,1365.2,-63.45 Z"></path><text x="1249.4" y="-112.9" text-anchor="start" font-family="'monospace',serif" font-size="9" fill="#000000">application/x-rtp</text><text x="1249.4" y="-102.1" text-anchor="start" font-family="'monospace',serif" font-size="9" fill="#000000">               media: video</text><text x="1249.4" y="-91.3" text-anchor="start" font-family="'monospace',serif" font-size="9" fill="#000000">          clock-rate: 90000</text><text x="1249.4" y="-80.5" text-anchor="start" font-family="'monospace',serif" font-size="9" fill="#000000">       encoding-name: VP8</text><text x="1249.4" y="-69.7" text-anchor="start" font-family="'monospace',serif" font-size="9" fill="#000000">             payload: 101</text></g><g class="subgraph"><title>cluster_udpsrc0_0x7f92b28a00e0</title><path stroke="#000000" fill="#ffaaaa" d="M 12,-145 C 12,-145,293,-145,293,-145,299,-145,305,-151,305,-157,305,-157,305,-301,305,-301,305,-307,299,-313,293,-313,293,-313,12,-313,12,-313,6,-313,0,-307,0,-301,0,-301,0,-157,0,-157,0,-151,6,-145,12,-145"></path><text x="152.5" y="-301.8" text-anchor="middle" font-family="'Bitstream Vera Sans',serif" font-size="8" fill="#000000">GstUDPSrc</text><text x="152.5" y="-292.2" text-anchor="middle" font-family="'Bitstream Vera Sans',serif" font-size="8" fill="#000000">udpsrc0</text><text x="152.5" y="-282.6" text-anchor="middle" font-family="'Bitstream Vera Sans',serif" font-size="8" fill="#000000">[&gt;]</text><text x="152.5" y="-273" text-anchor="middle" font-family="'Bitstream Vera Sans',serif" font-size="8" fill="#000000">parent=(GstPipeline) pipeline0</text><text x="152.5" y="-263.4" text-anchor="middle" font-family="'Bitstream Vera Sans',serif" font-size="8" fill="#000000">do-timestamp=TRUE</text><text x="152.5" y="-253.8" text-anchor="middle" font-family="'Bitstream Vera Sans',serif" font-size="8" fill="#000000">port=5000</text><text x="152.5" y="-244.2" text-anchor="middle" font-family="'Bitstream Vera Sans',serif" font-size="8" fill="#000000">multicast-group="127.0.0.1"</text><text x="152.5" y="-234.6" text-anchor="middle" font-family="'Bitstream Vera Sans',serif" font-size="8" fill="#000000">uri="udp://127.0.0.1:5000"</text><text x="152.5" y="-225" text-anchor="middle" font-family="'Bitstream Vera Sans',serif" font-size="8" fill="#000000">caps=application/x-rtp, media=(string)video, clock-rate=(int)90000, encoding-name=(st…</text><text x="152.5" y="-215.4" text-anchor="middle" font-family="'Bitstream Vera Sans',serif" font-size="8" fill="#000000">used-socket=((GSocket*) 0x7f92b28b7130)</text><text x="152.5" y="-205.8" text-anchor="middle" font-family="'Bitstream Vera Sans',serif" font-size="8" fill="#000000">address="127.0.0.1"</text></g><g class="subgraph"><title>cluster_udpsrc0_0x7f92b28a00e0_src</title></g><g class="node"><title>udpsrc0_0x7f92b28a00e0_src_0x7f92b28a4150</title><path class="solid" stroke="#000000" fill="#ffaaaa" d="M 179,-182.6 L 125,-182.6,125,-161.4,179,-161.4 Z"></path><text x="152" y="-174.7" text-anchor="middle" font-family="'sans',serif" font-size="9" fill="#000000">src</text><text x="152" y="-163.9" text-anchor="middle" font-family="'sans',serif" font-size="9" fill="#000000">[&gt;][bfb][T]</text></g><g class="node"><title>legend</title><path stroke="#000000" fill="#d3d3d3" d="M 293.43,-137 L 10.57,-137,10.57,-75,293.43,-75 Z"></path><text x="14.54" y="-124.9" text-anchor="start" font-family="'sans',serif" font-size="9" fill="#000000">Legend</text><text x="14.54" y="-114.1" text-anchor="start" font-family="'sans',serif" font-size="9" fill="#000000">Element-States: [~] void-pending, [0] null, [-] ready, [=] paused, [&gt;] playing</text><text x="14.54" y="-103.3" text-anchor="start" font-family="'sans',serif" font-size="9" fill="#000000">Pad-Activation: [-] none, [&gt;] push, [&lt;] pull</text><text x="14.54" y="-92.5" text-anchor="start" font-family="'sans',serif" font-size="9" fill="#000000">Pad-Flags: [b]locked, [f]lushing, [b]locking, [E]OS; upper-case is set</text><text x="14.54" y="-81.7" text-anchor="start" font-family="'sans',serif" font-size="9" fill="#000000">Pad-Task: [T] has started task, [t] has paused task</text></g><g class="relation" style="opacity: 1;"><title>vp8dec0_0x7f92b38025a0_src_0x7f92b28a4a90-&gt;fakesink0_0x7f92b3060be0_sink_0x7f92b28a4ce0</title><path stroke="#000000" fill="none" d="M 3441.81,-168 C 3493.96,-168,3611.14,-168,3670.69,-168"></path><path class="solid" stroke="#000000" fill="#000000" d="M 3670.77,-171.5 L 3680.77,-168,3670.77,-164.5 Z"></path><text x="3465.72" y="-278.7" text-anchor="start" font-family="'monospace',serif" font-size="9" fill="#000000">video/x-raw</text><text x="3465.72" y="-267.9" text-anchor="start" font-family="'monospace',serif" font-size="9" fill="#000000">              format: I420</text><text x="3465.72" y="-257.1" text-anchor="start" font-family="'monospace',serif" font-size="9" fill="#000000">               width: 640</text><text x="3465.72" y="-246.3" text-anchor="start" font-family="'monospace',serif" font-size="9" fill="#000000">              height: 360</text><text x="3465.72" y="-235.5" text-anchor="start" font-family="'monospace',serif" font-size="9" fill="#000000">      interlace-mode: progressive</text><text x="3465.72" y="-224.7" text-anchor="start" font-family="'monospace',serif" font-size="9" fill="#000000">      multiview-mode: mono</text><text x="3465.72" y="-213.9" text-anchor="start" font-family="'monospace',serif" font-size="9" fill="#000000">     multiview-flags: 0:ffffffff:/right-view...</text><text x="3465.72" y="-203.1" text-anchor="start" font-family="'monospace',serif" font-size="9" fill="#000000">  pixel-aspect-ratio: 1/1</text><text x="3465.72" y="-192.3" text-anchor="start" font-family="'monospace',serif" font-size="9" fill="#000000">         chroma-site: jpeg</text><text x="3465.72" y="-181.5" text-anchor="start" font-family="'monospace',serif" font-size="9" fill="#000000">         colorimetry: bt601</text><text x="3465.72" y="-170.7" text-anchor="start" font-family="'monospace',serif" font-size="9" fill="#000000">           framerate: 0/1</text></g><g class="relation" style="opacity: 1;"><title>rtpvp8depay0_0x7f92b28ae150_src_0x7f92b28a45f0-&gt;vp8dec0_0x7f92b38025a0_sink_0x7f92b28a4840</title><path stroke="#000000" fill="none" d="M 3116.45,-168 C 3158.71,-168,3242.02,-168,3290.11,-168"></path><path class="solid" stroke="#000000" fill="#000000" d="M 3290.39,-171.5 L 3300.39,-168,3290.39,-164.5 Z"></path><text x="3201.24" y="-213.9" text-anchor="start" font-family="'monospace',serif" font-size="9" fill="#000000">video/x-vp8</text><text x="3201.24" y="-203.1" text-anchor="start" font-family="'monospace',serif" font-size="9" fill="#000000">           framerate: 0/1</text><text x="3201.24" y="-192.3" text-anchor="start" font-family="'monospace',serif" font-size="9" fill="#000000">              height: 360</text><text x="3201.24" y="-181.5" text-anchor="start" font-family="'monospace',serif" font-size="9" fill="#000000">               width: 640</text><text x="3201.24" y="-170.7" text-anchor="start" font-family="'monospace',serif" font-size="9" fill="#000000">             profile: 0</text></g><g class="relation" style="opacity: 1;"><title>rtpbin0_0x7f92b28aa050_recv_rtp_src_0_23854650_101_0x7f92b306cac0-&gt;rtpvp8depay0_0x7f92b28ae150_sink_0x7f92b28a43a0</title><path stroke="#000000" fill="none" d="M 2774.45,-168 C 2830.86,-168,2916.68,-168,2964.96,-168"></path><path class="solid" stroke="#000000" fill="#000000" d="M 2965.24,-171.5 L 2975.24,-168,2965.24,-164.5 Z"></path><text x="2798.26" y="-224.7" text-anchor="start" font-family="'monospace',serif" font-size="9" fill="#000000">application/x-rtp</text><text x="2798.26" y="-213.9" text-anchor="start" font-family="'monospace',serif" font-size="9" fill="#000000">               media: video</text><text x="2798.26" y="-203.1" text-anchor="start" font-family="'monospace',serif" font-size="9" fill="#000000">          clock-rate: 90000</text><text x="2798.26" y="-192.3" text-anchor="start" font-family="'monospace',serif" font-size="9" fill="#000000">       encoding-name: VP8</text><text x="2798.26" y="-181.5" text-anchor="start" font-family="'monospace',serif" font-size="9" fill="#000000">             payload: 101</text><text x="2798.26" y="-170.7" text-anchor="start" font-family="'monospace',serif" font-size="9" fill="#000000">                ssrc: 23854650</text></g><g class="relation" style="opacity: 1;"><title>udpsrc0_0x7f92b28a00e0_src_0x7f92b28a4150-&gt;rtpbin0_0x7f92b28aa050_recv_rtp_sink_0_0x7f92b306c0c0</title><path stroke="#000000" fill="none" d="M 179.06,-172 C 234.92,-172,366.46,-172,432.37,-172"></path><path class="solid" stroke="#000000" fill="#000000" d="M 432.74,-175.5 L 442.74,-172,432.74,-168.5 Z"></path><text x="312.46" y="-217.9" text-anchor="start" font-family="'monospace',serif" font-size="9" fill="#000000">application/x-rtp</text><text x="312.46" y="-207.1" text-anchor="start" font-family="'monospace',serif" font-size="9" fill="#000000">               media: video</text><text x="312.46" y="-196.3" text-anchor="start" font-family="'monospace',serif" font-size="9" fill="#000000">          clock-rate: 90000</text><text x="312.46" y="-185.5" text-anchor="start" font-family="'monospace',serif" font-size="9" fill="#000000">       encoding-name: VP8</text><text x="312.46" y="-174.7" text-anchor="start" font-family="'monospace',serif" font-size="9" fill="#000000">             payload: 101</text></g></g></g></svg>