<svg version="1.1" xmlns="http://www.w3.org/2000/svg" width="2507.59pt" height="573pt" viewBox="0 0 2507.59 573"><style type="text/css">.dashed {stroke-dasharray: 5,5} .dotted {stroke-dasharray: 1,5} .overlay {fill: none; pointer-events: all}</style><g><g transform="translate(4, 569) scale(1,1)"><polygon stroke="#fffffe" stroke-opacity="0" fill="#ffffff" points="-4,4 -4,-569 2503.59,-569 2503.59,4"></polygon><g class="node"><title>edge</title></g><g class="subgraph"><title>cluster_fakesink0_0x7ffa658039e0</title><path stroke="#000000" fill="#aaaaff" d="M 2200.61,-56 C 2200.61,-56,2290.61,-56,2290.61,-56,2296.61,-56,2302.61,-62,2302.61,-68,2302.61,-68,2302.61,-164,2302.61,-164,2302.61,-170,2296.61,-176,2290.61,-176,2290.61,-176,2200.61,-176,2200.61,-176,2194.61,-176,2188.61,-170,2188.61,-164,2188.61,-164,2188.61,-68,2188.61,-68,2188.61,-62,2194.61,-56,2200.61,-56"></path><text x="2245.61" y="-164.8" text-anchor="middle" font-family="'Bitstream Vera Sans',serif" font-size="8" fill="#000000">GstFakeSink</text><text x="2245.61" y="-155.2" text-anchor="middle" font-family="'Bitstream Vera Sans',serif" font-size="8" fill="#000000">fakesink0</text><text x="2245.61" y="-145.6" text-anchor="middle" font-family="'Bitstream Vera Sans',serif" font-size="8" fill="#000000">[-]</text><text x="2245.61" y="-136" text-anchor="middle" font-family="'Bitstream Vera Sans',serif" font-size="8" fill="#000000">parent=(GstPipeline) pipeline0</text><text x="2245.61" y="-126.4" text-anchor="middle" font-family="'Bitstream Vera Sans',serif" font-size="8" fill="#000000">sync=FALSE</text><text x="2245.61" y="-116.8" text-anchor="middle" font-family="'Bitstream Vera Sans',serif" font-size="8" fill="#000000">dump=TRUE</text></g><g class="subgraph"><title>cluster_fakesink0_0x7ffa658039e0_sink</title></g><g class="node"><title>fakesink0_0x7ffa658039e0_sink_0x7ffa6510ece0</title><path class="solid" stroke="#000000" fill="#aaaaff" d="M 2272.61,-93.6 L 2218.61,-93.6,2218.61,-72.4,2272.61,-72.4 Z"></path><text x="2245.61" y="-85.7" text-anchor="middle" font-family="'sans',serif" font-size="9" fill="#000000">sink</text><text x="2245.61" y="-74.9" text-anchor="middle" font-family="'sans',serif" font-size="9" fill="#000000">[-][bFb]</text></g><g class="subgraph"><title>cluster_vp8dec0_0x7ffa658009a0</title><path stroke="#000000" fill="#aaffaa" d="M 1782.12,-63 C 1782.12,-63,2048.11,-63,2048.11,-63,2054.11,-63,2060.11,-69,2060.11,-75,2060.11,-75,2060.11,-151,2060.11,-151,2060.11,-157,2054.11,-163,2048.11,-163,2048.11,-163,1782.12,-163,1782.12,-163,1776.12,-163,1770.12,-157,1770.12,-151,1770.12,-151,1770.12,-75,1770.12,-75,1770.12,-69,1776.12,-63,1782.12,-63"></path><text x="1915.12" y="-151.8" text-anchor="middle" font-family="'Bitstream Vera Sans',serif" font-size="8" fill="#000000">GstVP8Dec</text><text x="1915.12" y="-142.2" text-anchor="middle" font-family="'Bitstream Vera Sans',serif" font-size="8" fill="#000000">vp8dec0</text><text x="1915.12" y="-132.6" text-anchor="middle" font-family="'Bitstream Vera Sans',serif" font-size="8" fill="#000000">[-]</text><text x="1915.12" y="-123" text-anchor="middle" font-family="'Bitstream Vera Sans',serif" font-size="8" fill="#000000">parent=(GstPipeline) pipeline0</text></g><g class="subgraph"><title>cluster_vp8dec0_0x7ffa658009a0_sink</title></g><g class="node"><title>vp8dec0_0x7ffa658009a0_sink_0x7ffa6510e840</title><path class="solid" stroke="#000000" fill="#aaaaff" d="M 1840.12,-100.6 L 1786.12,-100.6,1786.12,-79.4,1840.12,-79.4 Z"></path><text x="1813.12" y="-92.7" text-anchor="middle" font-family="'sans',serif" font-size="9" fill="#000000">sink</text><text x="1813.12" y="-81.9" text-anchor="middle" font-family="'sans',serif" font-size="9" fill="#000000">[-][bFb]</text></g><g class="subgraph"><title>cluster_vp8dec0_0x7ffa658009a0_src</title></g><g class="node"><title>vp8dec0_0x7ffa658009a0_src_0x7ffa6510ea90</title><path class="solid" stroke="#000000" fill="#ffaaaa" d="M 2044.11,-100.6 L 1990.11,-100.6,1990.11,-79.4,2044.11,-79.4 Z"></path><text x="2017.11" y="-92.7" text-anchor="middle" font-family="'sans',serif" font-size="9" fill="#000000">src</text><text x="2017.11" y="-81.9" text-anchor="middle" font-family="'sans',serif" font-size="9" fill="#000000">[-][bFb]</text></g><g class="relation" style="opacity: 1;"><title>vp8dec0_0x7ffa658009a0_sink_0x7ffa6510e840-&gt;vp8dec0_0x7ffa658009a0_src_0x7ffa6510ea90</title></g><g class="subgraph"><title>cluster_rtpvp8depay0_0x7ffa65118150</title><path stroke="#000000" fill="#aaffaa" d="M 1380.13,-65 C 1380.13,-65,1698.63,-65,1698.63,-65,1704.63,-65,1710.63,-71,1710.63,-77,1710.63,-77,1710.63,-163,1710.63,-163,1710.63,-169,1704.63,-175,1698.63,-175,1698.63,-175,1380.13,-175,1380.13,-175,1374.13,-175,1368.13,-169,1368.13,-163,1368.13,-163,1368.13,-77,1368.13,-77,1368.13,-71,1374.13,-65,1380.13,-65"></path><text x="1539.38" y="-163.8" text-anchor="middle" font-family="'Bitstream Vera Sans',serif" font-size="8" fill="#000000">GstRtpVP8Depay</text><text x="1539.38" y="-154.2" text-anchor="middle" font-family="'Bitstream Vera Sans',serif" font-size="8" fill="#000000">rtpvp8depay0</text><text x="1539.38" y="-144.6" text-anchor="middle" font-family="'Bitstream Vera Sans',serif" font-size="8" fill="#000000">[-]</text><text x="1539.38" y="-135" text-anchor="middle" font-family="'Bitstream Vera Sans',serif" font-size="8" fill="#000000">parent=(GstPipeline) pipeline0</text><text x="1539.38" y="-125.4" text-anchor="middle" font-family="'Bitstream Vera Sans',serif" font-size="8" fill="#000000">stats=application/x-rtp-depayload-stats, clock_rate=(uint)0, npt-start=(guint64)0, npt…</text></g><g class="subgraph"><title>cluster_rtpvp8depay0_0x7ffa65118150_sink</title></g><g class="node"><title>rtpvp8depay0_0x7ffa65118150_sink_0x7ffa6510e3a0</title><path class="solid" stroke="#000000" fill="#aaaaff" d="M 1438.13,-102.6 L 1384.13,-102.6,1384.13,-81.4,1438.13,-81.4 Z"></path><text x="1411.13" y="-94.7" text-anchor="middle" font-family="'sans',serif" font-size="9" fill="#000000">sink</text><text x="1411.13" y="-83.9" text-anchor="middle" font-family="'sans',serif" font-size="9" fill="#000000">[-][bFb]</text></g><g class="subgraph"><title>cluster_rtpvp8depay0_0x7ffa65118150_src</title></g><g class="node"><title>rtpvp8depay0_0x7ffa65118150_src_0x7ffa6510e5f0</title><path class="solid" stroke="#000000" fill="#ffaaaa" d="M 1694.63,-102.6 L 1640.63,-102.6,1640.63,-81.4,1694.63,-81.4 Z"></path><text x="1667.63" y="-94.7" text-anchor="middle" font-family="'sans',serif" font-size="9" fill="#000000">src</text><text x="1667.63" y="-83.9" text-anchor="middle" font-family="'sans',serif" font-size="9" fill="#000000">[-][bFb]</text></g><g class="relation" style="opacity: 1;"><title>rtpvp8depay0_0x7ffa65118150_sink_0x7ffa6510e3a0-&gt;rtpvp8depay0_0x7ffa65118150_src_0x7ffa6510e5f0</title></g><g class="subgraph"><title>cluster_rtpbin0_0x7ffa65114050</title><path stroke="#000000" fill="#ffffff" d="M 91.46,-184 C 91.46,-184,2487.59,-184,2487.59,-184,2493.59,-184,2499.59,-190,2499.59,-196,2499.59,-196,2499.59,-501,2499.59,-501,2499.59,-507,2493.59,-513,2487.59,-513,2487.59,-513,91.46,-513,91.46,-513,85.46,-513,79.46,-507,79.46,-501,79.46,-501,79.46,-196,79.46,-196,79.46,-190,85.46,-184,91.46,-184"></path><text x="1289.53" y="-501.8" text-anchor="middle" font-family="'Bitstream Vera Sans',serif" font-size="8" fill="#000000">GstRtpBin</text><text x="1289.53" y="-492.2" text-anchor="middle" font-family="'Bitstream Vera Sans',serif" font-size="8" fill="#000000">rtpbin0</text><text x="1289.53" y="-482.6" text-anchor="middle" font-family="'Bitstream Vera Sans',serif" font-size="8" fill="#000000">[-]</text><text x="1289.53" y="-473" text-anchor="middle" font-family="'Bitstream Vera Sans',serif" font-size="8" fill="#000000">parent=(GstPipeline) pipeline0</text><text x="1289.53" y="-463.4" text-anchor="middle" font-family="'Bitstream Vera Sans',serif" font-size="8" fill="#000000">sdes=application/x-rtp-source-sdes, cname=(string)\"user876878718\\@host-e8fd67fc…</text></g><g class="subgraph"><title>cluster_rtpbin0_0x7ffa65114050_sink</title></g><g class="node"><title>_proxypad0_0x7ffa65118390</title><path class="dashed" stroke="#000000" fill="#ddddff" d="M 957.66,-250.6 L 903.66,-250.6,903.66,-229.4,957.66,-229.4 Z"></path><text x="930.66" y="-242.7" text-anchor="middle" font-family="'sans',serif" font-size="9" fill="#000000">proxypad0</text><text x="930.66" y="-231.9" text-anchor="middle" font-family="'sans',serif" font-size="9" fill="#000000">[-][bFb]</text></g><g class="node"><title>rtpbin0_0x7ffa65114050_recv_rtp_sink_0_0x7ffa6481c0c0</title><path class="dashed" stroke="#000000" fill="#ddddff" d="M 960.14,-221.6 L 901.17,-221.6,901.17,-200.4,960.14,-200.4 Z"></path><text x="930.66" y="-213.7" text-anchor="middle" font-family="'sans',serif" font-size="9" fill="#000000">recv_rtp_sink_0</text><text x="930.66" y="-202.9" text-anchor="middle" font-family="'sans',serif" font-size="9" fill="#000000">[-][bFb]</text></g><g class="relation" style="opacity: 1;"><title>rtpbin0_0x7ffa65114050_recv_rtp_sink_0_0x7ffa6481c0c0-&gt;_proxypad0_0x7ffa65118390</title><path class="dashed" stroke="#000000" fill="none" d="M 930.66,-221.88 C 930.66,-222.03,930.66,-222.18,930.66,-222.34"></path><path class="solid" stroke="#000000" fill="#000000" d="M 927.16,-219.24 L 930.66,-229.24,934.16,-219.24 Z"></path></g><g class="subgraph"><title>cluster_rtpbin0_0x7ffa65114050_src</title></g><g class="node"><title>_proxypad1_0x7ffa65118ab0</title><path class="dotted" stroke="#000000" fill="#ffdddd" d="M 1197.89,-250.6 L 1143.89,-250.6,1143.89,-229.4,1197.89,-229.4 Z"></path><text x="1170.89" y="-242.7" text-anchor="middle" font-family="'sans',serif" font-size="9" fill="#000000">proxypad1</text><text x="1170.89" y="-231.9" text-anchor="middle" font-family="'sans',serif" font-size="9" fill="#000000">[-][bFb]</text></g><g class="node"><title>rtpbin0_0x7ffa65114050_recv_rtp_src_0_1241898255_101_0x7ffa6481cac0</title><path class="dotted" stroke="#000000" fill="#ffdddd" d="M 1231.87,-221.6 L 1109.92,-221.6,1109.92,-200.4,1231.87,-200.4 Z"></path><text x="1170.89" y="-213.7" text-anchor="middle" font-family="'sans',serif" font-size="9" fill="#000000">recv_rtp_src_0_1241898255_101</text><text x="1170.89" y="-202.9" text-anchor="middle" font-family="'sans',serif" font-size="9" fill="#000000">[-][bFb]</text></g><g class="relation" style="opacity: 1;"><title>_proxypad1_0x7ffa65118ab0-&gt;rtpbin0_0x7ffa65114050_recv_rtp_src_0_1241898255_101_0x7ffa6481cac0</title><path class="dashed" stroke="#000000" fill="none" d="M 1170.89,-229.24 C 1170.89,-229.08,1170.89,-228.93,1170.89,-228.78"></path><path class="solid" stroke="#000000" fill="#000000" d="M 1174.39,-231.87 L 1170.89,-221.88,1167.39,-231.88 Z"></path></g><g class="subgraph"><title>cluster_rtpjitterbuffer0_0x7ffa64846b00</title><path stroke="#000000" fill="#aaffaa" d="M 99.46,-300 C 99.46,-300,377.93,-300,377.93,-300,383.93,-300,389.93,-306,389.93,-312,389.93,-312,389.93,-437,389.93,-437,389.93,-443,383.93,-449,377.93,-449,377.93,-449,99.46,-449,99.46,-449,93.46,-449,87.46,-443,87.46,-437,87.46,-437,87.46,-312,87.46,-312,87.46,-306,93.46,-300,99.46,-300"></path><text x="238.7" y="-437.8" text-anchor="middle" font-family="'Bitstream Vera Sans',serif" font-size="8" fill="#000000">GstRtpJitterBuffer</text><text x="238.7" y="-428.2" text-anchor="middle" font-family="'Bitstream Vera Sans',serif" font-size="8" fill="#000000">rtpjitterbuffer0</text><text x="238.7" y="-418.6" text-anchor="middle" font-family="'Bitstream Vera Sans',serif" font-size="8" fill="#000000">[-]</text><text x="238.7" y="-409" text-anchor="middle" font-family="'Bitstream Vera Sans',serif" font-size="8" fill="#000000">parent=(GstRtpBin) rtpbin0</text><text x="238.7" y="-399.4" text-anchor="middle" font-family="'Bitstream Vera Sans',serif" font-size="8" fill="#000000">percent=100</text><text x="238.7" y="-389.8" text-anchor="middle" font-family="'Bitstream Vera Sans',serif" font-size="8" fill="#000000">stats=application/x-rtp-jitterbuffer-stats, num-pushed=(guint64)1, num-lost=(guint64)0…</text></g><g class="subgraph"><title>cluster_rtpjitterbuffer0_0x7ffa64846b00_sink</title></g><g class="node"><title>rtpjitterbuffer0_0x7ffa64846b00_sink_0x7ffa6580aeb0</title><path class="solid" stroke="#000000" fill="#aaaaff" d="M 168.46,-366.6 L 114.46,-366.6,114.46,-345.4,168.46,-345.4 Z"></path><text x="141.46" y="-358.7" text-anchor="middle" font-family="'sans',serif" font-size="9" fill="#000000">sink</text><text x="141.46" y="-347.9" text-anchor="middle" font-family="'sans',serif" font-size="9" fill="#000000">[-][bFb]</text></g><g class="node"><title>rtpjitterbuffer0_0x7ffa64846b00_sink_rtcp_0x7ffa6580b350</title><path class="dashed" stroke="#000000" fill="#aaaaff" d="M 168.46,-337.6 L 114.46,-337.6,114.46,-316.4,168.46,-316.4 Z"></path><text x="141.46" y="-329.7" text-anchor="middle" font-family="'sans',serif" font-size="9" fill="#000000">sink_rtcp</text><text x="141.46" y="-318.9" text-anchor="middle" font-family="'sans',serif" font-size="9" fill="#000000">[-][bFb]</text></g><g class="subgraph"><title>cluster_rtpjitterbuffer0_0x7ffa64846b00_src</title></g><g class="node"><title>rtpjitterbuffer0_0x7ffa64846b00_src_0x7ffa6580ac60</title><path class="solid" stroke="#000000" fill="#ffaaaa" d="M 361.93,-344.6 L 307.93,-344.6,307.93,-323.4,361.93,-323.4 Z"></path><text x="334.93" y="-336.7" text-anchor="middle" font-family="'sans',serif" font-size="9" fill="#000000">src</text><text x="334.93" y="-325.9" text-anchor="middle" font-family="'sans',serif" font-size="9" fill="#000000">[-][bFb]</text></g><g class="relation" style="opacity: 1;"><title>rtpjitterbuffer0_0x7ffa64846b00_sink_0x7ffa6580aeb0-&gt;rtpjitterbuffer0_0x7ffa64846b00_src_0x7ffa6580ac60</title></g><g class="subgraph"><title>cluster_rtpptdemux0_0x7ffa64847050</title><path stroke="#000000" fill="#aaffaa" d="M 587.91,-277 C 587.91,-277,961.66,-277,961.66,-277,967.66,-277,973.66,-283,973.66,-289,973.66,-289,973.66,-365,973.66,-365,973.66,-371,967.66,-377,961.66,-377,961.66,-377,587.91,-377,587.91,-377,581.91,-377,575.91,-371,575.91,-365,575.91,-365,575.91,-289,575.91,-289,575.91,-283,581.91,-277,587.91,-277"></path><text x="774.78" y="-365.8" text-anchor="middle" font-family="'Bitstream Vera Sans',serif" font-size="8" fill="#000000">GstRtpPtDemux</text><text x="774.78" y="-356.2" text-anchor="middle" font-family="'Bitstream Vera Sans',serif" font-size="8" fill="#000000">rtpptdemux0</text><text x="774.78" y="-346.6" text-anchor="middle" font-family="'Bitstream Vera Sans',serif" font-size="8" fill="#000000">[-]</text><text x="774.78" y="-337" text-anchor="middle" font-family="'Bitstream Vera Sans',serif" font-size="8" fill="#000000">parent=(GstRtpBin) rtpbin0</text></g><g class="subgraph"><title>cluster_rtpptdemux0_0x7ffa64847050_sink</title></g><g class="node"><title>rtpptdemux0_0x7ffa64847050_sink_0x7ffa6580b100</title><path class="solid" stroke="#000000" fill="#aaaaff" d="M 645.91,-314.6 L 591.91,-314.6,591.91,-293.4,645.91,-293.4 Z"></path><text x="618.91" y="-306.7" text-anchor="middle" font-family="'sans',serif" font-size="9" fill="#000000">sink</text><text x="618.91" y="-295.9" text-anchor="middle" font-family="'sans',serif" font-size="9" fill="#000000">[-][bFb]</text></g><g class="subgraph"><title>cluster_rtpptdemux0_0x7ffa64847050_src</title></g><g class="node"><title>rtpptdemux0_0x7ffa64847050_src_101_0x7ffa6580ba40</title><path class="dotted" stroke="#000000" fill="#ffaaaa" d="M 957.66,-314.6 L 903.66,-314.6,903.66,-293.4,957.66,-293.4 Z"></path><text x="930.66" y="-306.7" text-anchor="middle" font-family="'sans',serif" font-size="9" fill="#000000">src_101</text><text x="930.66" y="-295.9" text-anchor="middle" font-family="'sans',serif" font-size="9" fill="#000000">[-][bFb]</text></g><g class="relation" style="opacity: 1;"><title>rtpptdemux0_0x7ffa64847050_sink_0x7ffa6580b100-&gt;rtpptdemux0_0x7ffa64847050_src_101_0x7ffa6580ba40</title></g><g class="subgraph"><title>cluster_rtpstorage0_0x7ffa6511c360</title><path stroke="#000000" fill="#aaffaa" d="M 1986.11,-267 C 1986.11,-267,2276.61,-267,2276.61,-267,2282.61,-267,2288.61,-273,2288.61,-279,2288.61,-279,2288.61,-365,2288.61,-365,2288.61,-371,2282.61,-377,2276.61,-377,2276.61,-377,1986.11,-377,1986.11,-377,1980.11,-377,1974.11,-371,1974.11,-365,1974.11,-365,1974.11,-279,1974.11,-279,1974.11,-273,1980.11,-267,1986.11,-267"></path><text x="2131.36" y="-365.8" text-anchor="middle" font-family="'Bitstream Vera Sans',serif" font-size="8" fill="#000000">GstRtpStorage</text><text x="2131.36" y="-356.2" text-anchor="middle" font-family="'Bitstream Vera Sans',serif" font-size="8" fill="#000000">rtpstorage0</text><text x="2131.36" y="-346.6" text-anchor="middle" font-family="'Bitstream Vera Sans',serif" font-size="8" fill="#000000">[-]</text><text x="2131.36" y="-337" text-anchor="middle" font-family="'Bitstream Vera Sans',serif" font-size="8" fill="#000000">parent=(GstRtpBin) rtpbin0</text><text x="2131.36" y="-327.4" text-anchor="middle" font-family="'Bitstream Vera Sans',serif" font-size="8" fill="#000000">internal-storage=((RtpStorage*) 0x7ffa63cc3ac0)</text></g><g class="subgraph"><title>cluster_rtpstorage0_0x7ffa6511c360_sink</title></g><g class="node"><title>rtpstorage0_0x7ffa6511c360_sink_0x7ffa6510f620</title><path class="solid" stroke="#000000" fill="#aaaaff" d="M 2044.11,-304.6 L 1990.11,-304.6,1990.11,-283.4,2044.11,-283.4 Z"></path><text x="2017.11" y="-296.7" text-anchor="middle" font-family="'sans',serif" font-size="9" fill="#000000">sink</text><text x="2017.11" y="-285.9" text-anchor="middle" font-family="'sans',serif" font-size="9" fill="#000000">[-][bFb]</text></g><g class="subgraph"><title>cluster_rtpstorage0_0x7ffa6511c360_src</title></g><g class="node"><title>rtpstorage0_0x7ffa6511c360_src_0x7ffa6510f3d0</title><path class="solid" stroke="#000000" fill="#ffaaaa" d="M 2272.61,-304.6 L 2218.61,-304.6,2218.61,-283.4,2272.61,-283.4 Z"></path><text x="2245.61" y="-296.7" text-anchor="middle" font-family="'sans',serif" font-size="9" fill="#000000">src</text><text x="2245.61" y="-285.9" text-anchor="middle" font-family="'sans',serif" font-size="9" fill="#000000">[-][bFb]</text></g><g class="relation" style="opacity: 1;"><title>rtpstorage0_0x7ffa6511c360_sink_0x7ffa6510f620-&gt;rtpstorage0_0x7ffa6511c360_src_0x7ffa6510f3d0</title></g><g class="subgraph"><title>cluster_funnel1_0x7ffa6511c5a0</title><path stroke="#000000" fill="#ffaaaa" d="M 101.46,-192 C 101.46,-192,182.46,-192,182.46,-192,188.46,-192,194.46,-198,194.46,-204,194.46,-204,194.46,-280,194.46,-280,194.46,-286,188.46,-292,182.46,-292,182.46,-292,101.46,-292,101.46,-292,95.46,-292,89.46,-286,89.46,-280,89.46,-280,89.46,-204,89.46,-204,89.46,-198,95.46,-192,101.46,-192"></path><text x="141.96" y="-280.8" text-anchor="middle" font-family="'Bitstream Vera Sans',serif" font-size="8" fill="#000000">GstFunnel</text><text x="141.96" y="-271.2" text-anchor="middle" font-family="'Bitstream Vera Sans',serif" font-size="8" fill="#000000">funnel1</text><text x="141.96" y="-261.6" text-anchor="middle" font-family="'Bitstream Vera Sans',serif" font-size="8" fill="#000000">[-]</text><text x="141.96" y="-252" text-anchor="middle" font-family="'Bitstream Vera Sans',serif" font-size="8" fill="#000000">parent=(GstRtpBin) rtpbin0</text></g><g class="subgraph"><title>cluster_funnel1_0x7ffa6511c5a0_src</title></g><g class="node"><title>funnel1_0x7ffa6511c5a0_src_0x7ffa6510fac0</title><path class="solid" stroke="#000000" fill="#ffaaaa" d="M 168.46,-229.6 L 114.46,-229.6,114.46,-208.4,168.46,-208.4 Z"></path><text x="141.46" y="-221.7" text-anchor="middle" font-family="'sans',serif" font-size="9" fill="#000000">src</text><text x="141.46" y="-210.9" text-anchor="middle" font-family="'sans',serif" font-size="9" fill="#000000">[-][bFb]</text></g><g class="subgraph"><title>cluster_funnel0_0x7ffa6511c480</title><path stroke="#000000" fill="#aaffaa" d="M 1139.89,-267 C 1139.89,-267,1442.13,-267,1442.13,-267,1448.13,-267,1454.13,-273,1454.13,-279,1454.13,-279,1454.13,-355,1454.13,-355,1454.13,-361,1448.13,-367,1442.13,-367,1442.13,-367,1139.89,-367,1139.89,-367,1133.89,-367,1127.89,-361,1127.89,-355,1127.89,-355,1127.89,-279,1127.89,-279,1127.89,-273,1133.89,-267,1139.89,-267"></path><text x="1291.01" y="-355.8" text-anchor="middle" font-family="'Bitstream Vera Sans',serif" font-size="8" fill="#000000">GstFunnel</text><text x="1291.01" y="-346.2" text-anchor="middle" font-family="'Bitstream Vera Sans',serif" font-size="8" fill="#000000">funnel0</text><text x="1291.01" y="-336.6" text-anchor="middle" font-family="'Bitstream Vera Sans',serif" font-size="8" fill="#000000">[-]</text><text x="1291.01" y="-327" text-anchor="middle" font-family="'Bitstream Vera Sans',serif" font-size="8" fill="#000000">parent=(GstRtpBin) rtpbin0</text></g><g class="subgraph"><title>cluster_funnel0_0x7ffa6511c480_sink</title></g><g class="node"><title>funnel0_0x7ffa6511c480_funnelpad0_0x7ffa6580a320</title><path class="dashed" stroke="#000000" fill="#aaaaff" d="M 1197.89,-304.6 L 1143.89,-304.6,1143.89,-283.4,1197.89,-283.4 Z"></path><text x="1170.89" y="-296.7" text-anchor="middle" font-family="'sans',serif" font-size="9" fill="#000000">funnelpad0</text><text x="1170.89" y="-285.9" text-anchor="middle" font-family="'sans',serif" font-size="9" fill="#000000">[-][bFb]</text></g><g class="subgraph"><title>cluster_funnel0_0x7ffa6511c480_src</title></g><g class="node"><title>funnel0_0x7ffa6511c480_src_0x7ffa6510f870</title><path class="solid" stroke="#000000" fill="#ffaaaa" d="M 1438.13,-304.6 L 1384.13,-304.6,1384.13,-283.4,1438.13,-283.4 Z"></path><text x="1411.13" y="-296.7" text-anchor="middle" font-family="'sans',serif" font-size="9" fill="#000000">src</text><text x="1411.13" y="-285.9" text-anchor="middle" font-family="'sans',serif" font-size="9" fill="#000000">[-][bFb]</text></g><g class="relation" style="opacity: 1;"><title>funnel0_0x7ffa6511c480_funnelpad0_0x7ffa6580a320-&gt;funnel0_0x7ffa6511c480_src_0x7ffa6510f870</title></g><g class="subgraph"><title>cluster_rtpssrcdemux0_0x7ffa650fe180</title><path stroke="#000000" fill="#aaaaff" d="M 2398.59,-238 C 2398.59,-238,2479.59,-238,2479.59,-238,2485.59,-238,2491.59,-244,2491.59,-250,2491.59,-250,2491.59,-355,2491.59,-355,2491.59,-361,2485.59,-367,2479.59,-367,2479.59,-367,2398.59,-367,2398.59,-367,2392.59,-367,2386.59,-361,2386.59,-355,2386.59,-355,2386.59,-250,2386.59,-250,2386.59,-244,2392.59,-238,2398.59,-238"></path><text x="2439.09" y="-355.8" text-anchor="middle" font-family="'Bitstream Vera Sans',serif" font-size="8" fill="#000000">GstRtpSsrcDemux</text><text x="2439.09" y="-346.2" text-anchor="middle" font-family="'Bitstream Vera Sans',serif" font-size="8" fill="#000000">rtpssrcdemux0</text><text x="2439.09" y="-336.6" text-anchor="middle" font-family="'Bitstream Vera Sans',serif" font-size="8" fill="#000000">[-]</text><text x="2439.09" y="-327" text-anchor="middle" font-family="'Bitstream Vera Sans',serif" font-size="8" fill="#000000">parent=(GstRtpBin) rtpbin0</text></g><g class="subgraph"><title>cluster_rtpssrcdemux0_0x7ffa650fe180_sink</title></g><g class="node"><title>rtpssrcdemux0_0x7ffa650fe180_sink_0x7ffa6510ef30</title><path class="solid" stroke="#000000" fill="#aaaaff" d="M 2465.59,-304.6 L 2411.59,-304.6,2411.59,-283.4,2465.59,-283.4 Z"></path><text x="2438.59" y="-296.7" text-anchor="middle" font-family="'sans',serif" font-size="9" fill="#000000">sink</text><text x="2438.59" y="-285.9" text-anchor="middle" font-family="'sans',serif" font-size="9" fill="#000000">[-][bFb]</text></g><g class="node"><title>rtpssrcdemux0_0x7ffa650fe180_rtcp_sink_0x7ffa6510f180</title><path class="solid" stroke="#000000" fill="#aaaaff" d="M 2465.59,-275.6 L 2411.59,-275.6,2411.59,-254.4,2465.59,-254.4 Z"></path><text x="2438.59" y="-267.7" text-anchor="middle" font-family="'sans',serif" font-size="9" fill="#000000">rtcp_sink</text><text x="2438.59" y="-256.9" text-anchor="middle" font-family="'sans',serif" font-size="9" fill="#000000">[-][bFb]</text></g><g class="subgraph"><title>cluster_rtpsession0_0x7ffa6482a0e0</title><path stroke="#000000" fill="#aaffaa" d="M 1602.63,-267 C 1602.63,-267,1878.12,-267,1878.12,-267,1884.12,-267,1890.12,-273,1890.12,-279,1890.12,-279,1890.12,-403,1890.12,-403,1890.12,-409,1884.12,-415,1878.12,-415,1878.12,-415,1602.63,-415,1602.63,-415,1596.63,-415,1590.63,-409,1590.63,-403,1590.63,-403,1590.63,-279,1590.63,-279,1590.63,-273,1596.63,-267,1602.63,-267"></path><text x="1740.38" y="-403.8" text-anchor="middle" font-family="'Bitstream Vera Sans',serif" font-size="8" fill="#000000">GstRtpSession</text><text x="1740.38" y="-394.2" text-anchor="middle" font-family="'Bitstream Vera Sans',serif" font-size="8" fill="#000000">rtpsession0</text><text x="1740.38" y="-384.6" text-anchor="middle" font-family="'Bitstream Vera Sans',serif" font-size="8" fill="#000000">[-]</text><text x="1740.38" y="-375" text-anchor="middle" font-family="'Bitstream Vera Sans',serif" font-size="8" fill="#000000">parent=(GstRtpBin) rtpbin0</text><text x="1740.38" y="-365.4" text-anchor="middle" font-family="'Bitstream Vera Sans',serif" font-size="8" fill="#000000">sdes=application/x-rtp-source-sdes, cname=(string)\"user876878718\\@host-e8fd67fc…</text><text x="1740.38" y="-355.8" text-anchor="middle" font-family="'Bitstream Vera Sans',serif" font-size="8" fill="#000000">num-sources=1</text><text x="1740.38" y="-346.2" text-anchor="middle" font-family="'Bitstream Vera Sans',serif" font-size="8" fill="#000000">num-active-sources=1</text><text x="1740.38" y="-336.6" text-anchor="middle" font-family="'Bitstream Vera Sans',serif" font-size="8" fill="#000000">internal-session=((RTPSession*) 0x7ffa651202e0)</text><text x="1740.38" y="-327" text-anchor="middle" font-family="'Bitstream Vera Sans',serif" font-size="8" fill="#000000">stats=application/x-rtp-session-stats, rtx-drop-count=(uint)0, sent-nack-count=(uint)0…</text></g><g class="subgraph"><title>cluster_rtpsession0_0x7ffa6482a0e0_sink</title></g><g class="node"><title>rtpsession0_0x7ffa6482a0e0_recv_rtp_sink_0x7ffa6510fd10</title><path class="dashed" stroke="#000000" fill="#aaaaff" d="M 1694.63,-304.6 L 1640.63,-304.6,1640.63,-283.4,1694.63,-283.4 Z"></path><text x="1667.63" y="-296.7" text-anchor="middle" font-family="'sans',serif" font-size="9" fill="#000000">recv_rtp_sink</text><text x="1667.63" y="-285.9" text-anchor="middle" font-family="'sans',serif" font-size="9" fill="#000000">[-][bFb]</text></g><g class="subgraph"><title>cluster_rtpsession0_0x7ffa6482a0e0_src</title></g><g class="node"><title>rtpsession0_0x7ffa6482a0e0_recv_rtp_src_0x7ffa6580a0d0</title><path class="dotted" stroke="#000000" fill="#ffaaaa" d="M 1840.12,-304.6 L 1786.12,-304.6,1786.12,-283.4,1840.12,-283.4 Z"></path><text x="1813.12" y="-296.7" text-anchor="middle" font-family="'sans',serif" font-size="9" fill="#000000">recv_rtp_src</text><text x="1813.12" y="-285.9" text-anchor="middle" font-family="'sans',serif" font-size="9" fill="#000000">[-][bFb]</text></g><g class="relation" style="opacity: 1;"><title>rtpsession0_0x7ffa6482a0e0_recv_rtp_sink_0x7ffa6510fd10-&gt;rtpsession0_0x7ffa6482a0e0_recv_rtp_src_0x7ffa6580a0d0</title></g><g class="relation" style="opacity: 1;"><title>_proxypad0_0x7ffa65118390-&gt;funnel0_0x7ffa6511c480_funnelpad0_0x7ffa6580a320</title><path stroke="#000000" fill="none" d="M 957.84,-242.96 C 990.2,-246.93,1046.8,-254.96,1094.16,-267.2,1107.37,-270.62,1121.54,-275.34,1134.02,-279.86"></path><path class="solid" stroke="#000000" fill="#000000" d="M 1133.01,-283.22 L 1143.61,-283.42,1135.45,-276.66 Z"></path><text x="1049.86" y="-246.8" text-anchor="middle" font-family="'monospace',serif" font-size="6" fill="#000000">ANY</text><text x="1037.91" y="-270.7" text-anchor="middle" font-family="'monospace',serif" font-size="9" fill="#000000">                                                  </text><text x="1035.89" y="-257.3" text-anchor="start" font-family="'monospace',serif" font-size="6" fill="#000000">application/x-rtp</text><text x="1035.89" y="-250.1" text-anchor="start" font-family="'monospace',serif" font-size="6" fill="#000000">application/x-srtp</text></g><g class="relation" style="opacity: 1;"><title>rtpbin0_0x7ffa65114050_recv_rtp_sink_0_0x7ffa6481c0c0-&gt;rtpbin0_0x7ffa65114050_recv_rtp_src_0_1241898255_101_0x7ffa6481cac0</title></g><g class="relation" style="opacity: 1;"><title>rtpjitterbuffer0_0x7ffa64846b00_src_0x7ffa6580ac60-&gt;rtpptdemux0_0x7ffa64847050_sink_0x7ffa6580b100</title><path stroke="#000000" fill="none" d="M 361.95,-331.23 C 412.4,-325.86,523.59,-314.04,581.4,-307.88"></path><path class="solid" stroke="#000000" fill="#000000" d="M 581.97,-311.34 L 591.54,-306.81,581.23,-304.38 Z"></path><text x="405.93" y="-327.7" text-anchor="start" font-family="'monospace',serif" font-size="9" fill="#000000">application/x-rtp</text></g><g class="relation" style="opacity: 1;"><title>rtpptdemux0_0x7ffa64847050_src_101_0x7ffa6580ba40-&gt;_proxypad1_0x7ffa65118ab0</title><path stroke="#000000" fill="none" d="M 957.76,-301.43 C 990.28,-297.75,1047.27,-289.75,1094.16,-275,1110.32,-269.91,1127.53,-262.17,1141.45,-255.25"></path><path class="solid" stroke="#000000" fill="#000000" d="M 1143.19,-258.3 L 1150.51,-250.64,1140.01,-252.06 Z"></path><text x="1041.4" y="-294.2" text-anchor="start" font-family="'monospace',serif" font-size="6" fill="#000000">application/x-rtp</text><text x="1037.91" y="-301.7" text-anchor="middle" font-family="'monospace',serif" font-size="9" fill="#000000">                                                  </text><text x="1025.24" y="-291.49" text-anchor="start" font-family="'monospace',serif" font-size="6" fill="#000000">application/x-rtp</text><text x="1025.24" y="-284.29" text-anchor="start" font-family="'monospace',serif" font-size="6" fill="#000000">             payload: [ 0, 255 ]</text></g><g class="relation" style="opacity: 1;"><title>rtpstorage0_0x7ffa6511c360_src_0x7ffa6510f3d0-&gt;rtpssrcdemux0_0x7ffa650fe180_sink_0x7ffa6510ef30</title><path stroke="#000000" fill="none" d="M 2272.76,-294 C 2306.1,-294,2363.9,-294,2401.43,-294"></path><path class="solid" stroke="#000000" fill="#000000" d="M 2401.45,-297.5 L 2411.45,-294,2401.45,-290.5 Z"></path><text x="2310.61" y="-296.7" text-anchor="start" font-family="'monospace',serif" font-size="9" fill="#000000">application/x-rtp</text></g><g class="relation" style="opacity: 1;"><title>funnel0_0x7ffa6511c480_src_0x7ffa6510f870-&gt;rtpsession0_0x7ffa6482a0e0_recv_rtp_sink_0x7ffa6510fd10</title><path stroke="#000000" fill="none" d="M 1438.41,-294 C 1484.15,-294,1578.48,-294,1630.4,-294"></path><path class="solid" stroke="#000000" fill="#000000" d="M 1630.5,-297.5 L 1640.5,-294,1630.5,-290.5 Z"></path><text x="1520.5" y="-292.2" text-anchor="start" font-family="'monospace',serif" font-size="6" fill="#000000">application/x-rtp</text><text x="1518.38" y="-296.7" text-anchor="middle" font-family="'monospace',serif" font-size="9" fill="#000000">                                                  </text><text x="1538.41" y="-292.2" text-anchor="middle" font-family="'monospace',serif" font-size="6" fill="#000000">ANY</text></g><g class="relation" style="opacity: 1;"><title>rtpsession0_0x7ffa6482a0e0_recv_rtp_src_0x7ffa6580a0d0-&gt;rtpstorage0_0x7ffa6511c360_sink_0x7ffa6510f620</title><path stroke="#000000" fill="none" d="M 1840.53,-294 C 1876.16,-294,1939.78,-294,1979.87,-294"></path><path class="solid" stroke="#000000" fill="#000000" d="M 1980.02,-297.5 L 1990.02,-294,1980.02,-290.5 Z"></path><text x="1906.12" y="-296.7" text-anchor="start" font-family="'monospace',serif" font-size="9" fill="#000000">application/x-rtp</text></g><g class="subgraph"><title>cluster_udpsrc0_0x7ffa650d68e0</title><path stroke="#000000" fill="#ffaaaa" d="M 485.91,-8 C 485.91,-8,752.91,-8,752.91,-8,758.91,-8,764.91,-14,764.91,-20,764.91,-20,764.91,-164,764.91,-164,764.91,-170,758.91,-176,752.91,-176,752.91,-176,485.91,-176,485.91,-176,479.91,-176,473.91,-170,473.91,-164,473.91,-164,473.91,-20,473.91,-20,473.91,-14,479.91,-8,485.91,-8"></path><text x="619.41" y="-164.8" text-anchor="middle" font-family="'Bitstream Vera Sans',serif" font-size="8" fill="#000000">GstUDPSrc</text><text x="619.41" y="-155.2" text-anchor="middle" font-family="'Bitstream Vera Sans',serif" font-size="8" fill="#000000">udpsrc0</text><text x="619.41" y="-145.6" text-anchor="middle" font-family="'Bitstream Vera Sans',serif" font-size="8" fill="#000000">[-]</text><text x="619.41" y="-136" text-anchor="middle" font-family="'Bitstream Vera Sans',serif" font-size="8" fill="#000000">parent=(GstPipeline) pipeline0</text><text x="619.41" y="-126.4" text-anchor="middle" font-family="'Bitstream Vera Sans',serif" font-size="8" fill="#000000">do-timestamp=TRUE</text><text x="619.41" y="-116.8" text-anchor="middle" font-family="'Bitstream Vera Sans',serif" font-size="8" fill="#000000">port=5000</text><text x="619.41" y="-107.2" text-anchor="middle" font-family="'Bitstream Vera Sans',serif" font-size="8" fill="#000000">multicast-group="127.0.0.1"</text><text x="619.41" y="-97.6" text-anchor="middle" font-family="'Bitstream Vera Sans',serif" font-size="8" fill="#000000">uri="udp://127.0.0.1:5000"</text><text x="619.41" y="-88" text-anchor="middle" font-family="'Bitstream Vera Sans',serif" font-size="8" fill="#000000">caps=application/x-rtp, media=(string)video, clock-rate=(int)90000, payload=(int)101</text><text x="619.41" y="-78.4" text-anchor="middle" font-family="'Bitstream Vera Sans',serif" font-size="8" fill="#000000">used-socket=((GSocket*) 0x7ffa64814130)</text><text x="619.41" y="-68.8" text-anchor="middle" font-family="'Bitstream Vera Sans',serif" font-size="8" fill="#000000">address="127.0.0.1"</text></g><g class="subgraph"><title>cluster_udpsrc0_0x7ffa650d68e0_src</title></g><g class="node"><title>udpsrc0_0x7ffa650d68e0_src_0x7ffa6510e150</title><path class="solid" stroke="#000000" fill="#ffaaaa" d="M 645.91,-45.6 L 591.91,-45.6,591.91,-24.4,645.91,-24.4 Z"></path><text x="618.91" y="-37.7" text-anchor="middle" font-family="'sans',serif" font-size="9" fill="#000000">src</text><text x="618.91" y="-26.9" text-anchor="middle" font-family="'sans',serif" font-size="9" fill="#000000">[-][bFb]</text></g><g class="node"><title>legend</title><path stroke="#000000" fill="#d3d3d3" d="M 282.89,-176 L 0.04,-176,0.04,-114,282.89,-114 Z"></path><text x="4" y="-163.9" text-anchor="start" font-family="'sans',serif" font-size="9" fill="#000000">Legend</text><text x="4" y="-153.1" text-anchor="start" font-family="'sans',serif" font-size="9" fill="#000000">Element-States: [~] void-pending, [0] null, [-] ready, [=] paused, [&gt;] playing</text><text x="4" y="-142.3" text-anchor="start" font-family="'sans',serif" font-size="9" fill="#000000">Pad-Activation: [-] none, [&gt;] push, [&lt;] pull</text><text x="4" y="-131.5" text-anchor="start" font-family="'sans',serif" font-size="9" fill="#000000">Pad-Flags: [b]locked, [f]lushing, [b]locking, [E]OS; upper-case is set</text><text x="4" y="-120.7" text-anchor="start" font-family="'sans',serif" font-size="9" fill="#000000">Pad-Task: [T] has started task, [t] has paused task</text></g><g class="relation" style="opacity: 1;"><title>vp8dec0_0x7ffa658009a0_src_0x7ffa6510ea90-&gt;fakesink0_0x7ffa658039e0_sink_0x7ffa6510ece0</title><path stroke="#000000" fill="none" d="M 2044.53,-89.18 C 2085.02,-87.93,2162.52,-85.54,2208.27,-84.12"></path><path class="solid" stroke="#000000" fill="#000000" d="M 2208.46,-87.62 L 2218.35,-83.81,2208.25,-80.62 Z"></path><text x="2118.4" y="-85.1" text-anchor="middle" font-family="'monospace',serif" font-size="6" fill="#000000">ANY</text><text x="2124.36" y="-91.7" text-anchor="middle" font-family="'monospace',serif" font-size="9" fill="#000000">                                                  </text><text x="2097" y="-98.69" text-anchor="start" font-family="'monospace',serif" font-size="6" fill="#000000">video/x-raw</text><text x="2097" y="-91.49" text-anchor="start" font-family="'monospace',serif" font-size="6" fill="#000000">              format: I420</text><text x="2097" y="-84.29" text-anchor="start" font-family="'monospace',serif" font-size="6" fill="#000000">               width: [ 1, 2147483647 ]</text><text x="2097" y="-77.09" text-anchor="start" font-family="'monospace',serif" font-size="6" fill="#000000">              height: [ 1, 2147483647 ]</text><text x="2097" y="-69.89" text-anchor="start" font-family="'monospace',serif" font-size="6" fill="#000000">           framerate: [ 0/1, 2147483647/1 ]</text></g><g class="relation" style="opacity: 1;"><title>rtpvp8depay0_0x7ffa65118150_src_0x7ffa6510e5f0-&gt;vp8dec0_0x7ffa658009a0_sink_0x7ffa6510e840</title><path stroke="#000000" fill="none" d="M 1694.95,-91.63 C 1717.6,-91.32,1750.52,-90.86,1775.71,-90.51"></path><path class="solid" stroke="#000000" fill="#000000" d="M 1776.02,-94 L 1785.97,-90.36,1775.92,-87 Z"></path><text x="1718.63" y="-94.7" text-anchor="start" font-family="'monospace',serif" font-size="9" fill="#000000">video/x-vp8</text></g><g class="relation" style="opacity: 1;"><title>rtpbin0_0x7ffa65114050_recv_rtp_src_0_1241898255_101_0x7ffa6481cac0-&gt;rtpvp8depay0_0x7ffa65118150_sink_0x7ffa6510e3a0</title><path stroke="#000000" fill="none" d="M 1193.46,-200.23 C 1235.98,-178.99,1330.76,-131.65,1379.65,-107.22"></path><path class="solid" stroke="#000000" fill="#000000" d="M 1381.41,-110.26 L 1388.79,-102.66,1378.28,-104 Z"></path><text x="1246.88" y="-156.35" text-anchor="start" font-family="'monospace',serif" font-size="6" fill="#000000">application/x-rtp</text><text x="1246.88" y="-149.15" text-anchor="start" font-family="'monospace',serif" font-size="6" fill="#000000">          clock-rate: 90000</text><text x="1246.88" y="-141.95" text-anchor="start" font-family="'monospace',serif" font-size="6" fill="#000000">               media: video</text><text x="1246.88" y="-134.75" text-anchor="start" font-family="'monospace',serif" font-size="6" fill="#000000">       encoding-name: { (string)VP8, (stri... }</text><text x="1303.88" y="-175.7" text-anchor="middle" font-family="'monospace',serif" font-size="9" fill="#000000">                                                  </text><text x="1262.92" y="-153.74" text-anchor="start" font-family="'monospace',serif" font-size="6" fill="#000000">application/x-rtp</text></g><g class="relation" style="opacity: 1;"><title>udpsrc0_0x7ffa650d68e0_src_0x7ffa6510e150-&gt;rtpbin0_0x7ffa65114050_recv_rtp_sink_0_0x7ffa6481c0c0</title><path stroke="#000000" fill="none" d="M 638.82,-45.74 C 691.54,-75.7,840.35,-160.26,902.18,-195.39"></path><path class="solid" stroke="#000000" fill="#000000" d="M 900.57,-198.5 L 910.99,-200.4,904.03,-192.41 Z"></path><text x="802.89" y="-152.79" text-anchor="start" font-family="'monospace',serif" font-size="6" fill="#000000">application/x-rtp</text><text x="802.89" y="-145.59" text-anchor="start" font-family="'monospace',serif" font-size="6" fill="#000000">application/x-srtp</text><text x="829.16" y="-188.7" text-anchor="middle" font-family="'monospace',serif" font-size="9" fill="#000000">                                                  </text><text x="725.77" y="-93.35" text-anchor="middle" font-family="'monospace',serif" font-size="6" fill="#000000">ANY</text></g></g></g></svg>